<?xml version="1.0" standalone="no"?>
<!DOCTYPE svg PUBLIC "-//W3C//DTD SVG 1.1//EN" "http://www.w3.org/Graphics/SVG/1.1/DTD/svg11.dtd" >
<svg>
<metadata>
Created by FontForge 20120731 at Wed May 22 12:34:07 2013
 By Jenkins
2010 Erik Spiekermann, Christian Schwartz published by FSI FontShop International GmbH
</metadata>
<defs>
<font id="UnitComp" horiz-adv-x="550" >
  <font-face 
    font-family="UnitComp"
    font-weight="400"
    font-stretch="normal"
    units-per-em="1000"
    panose-1="2 11 5 4 3 1 1 2 1 2"
    ascent="793"
    descent="-207"
    x-height="501"
    cap-height="689"
    bbox="-725 -255 1315 935"
    underline-thickness="80"
    underline-position="-20"
    unicode-range="U+0020-FFFD"
  />
<missing-glyph horiz-adv-x="527" 
d="M88 689h351v-689h-351v689zM364 75v539h-201v-539h201z" />
    <glyph glyph-name="uniFB00" unicode="ff" horiz-adv-x="573" 
d="M35 501h55v70q0 43 10.5 71.5t28 46t40.5 24.5t48 7q29 0 51 -4.5t45 -18.5l-29 -67q-16 8 -27.5 11t-27.5 3q-26 0 -39.5 -17t-13.5 -55v-71h182v80q0 43 10.5 71.5t28.5 46t42 24.5t52 7q29 0 55.5 -6.5t48.5 -20.5l-30 -65q-31 16 -62 16q-32 0 -45.5 -17t-13.5 -55
v-81h94v-70h-94v-431h-86v431h-182v-431h-86v431h-55v70z" />
    <glyph glyph-name="fi" unicode="fi" horiz-adv-x="536" 
d="M358 431h-182v-431h-86v431h-55v70h55v61q0 86 45.5 127t119.5 41q24 0 42 -2t33 -6t28.5 -10t27.5 -14l-32 -71q-20 11 -39 17t-48 6q-50 0 -70.5 -18.5t-20.5 -68.5v-62h268v-501h-86v431z" />
    <glyph glyph-name="fl" unicode="fl" horiz-adv-x="546" 
d="M449 -10q-48 0 -69.5 28t-21.5 94v535q-15 4 -32.5 6t-41.5 2q-54 0 -81 -21t-27 -71v-62h104v-70h-104v-431h-86v431h-55v70h55v61q0 43 14 74.5t38.5 52.5t58 31t71.5 10q29 0 51.5 -2t37.5 -4h83v-628q0 -35 35 -35q7 0 11.5 0.5t8.5 1.5l12 -62q-11 -5 -28.5 -8
t-33.5 -3z" />
    <glyph glyph-name="uniFB03" unicode="ffi" horiz-adv-x="804" 
d="M358 431h-182v-431h-86v431h-55v70h55v70q0 43 10.5 71.5t28 46t40.5 24.5t48 7q29 0 51 -4.5t45 -18.5l-29 -67q-16 8 -27.5 11t-27.5 3q-26 0 -39.5 -17t-13.5 -55v-71h182v61q0 86 45.5 127t119.5 41q24 0 42 -2t33 -6t28.5 -10t27.5 -14l-32 -71q-20 11 -39 17t-48 6
q-50 0 -70.5 -18.5t-20.5 -68.5v-62h268v-501h-86v431h-182v-431h-86v431z" />
    <glyph glyph-name="uniFB04" unicode="ffl" horiz-adv-x="814" 
d="M358 431h-182v-431h-86v431h-55v70h55v70q0 43 10.5 71.5t28 46t40.5 24.5t48 7q29 0 51 -4.5t45 -18.5l-29 -67q-16 8 -27.5 11t-27.5 3q-26 0 -39.5 -17t-13.5 -55v-71h182v61q0 43 14 74.5t38.5 52.5t58 31t71.5 10q29 0 51.5 -2t37.5 -4h83v-628q0 -35 35 -35
q8 0 12.5 0.5t7.5 1.5l12 -62q-11 -5 -28.5 -8t-33.5 -3q-48 0 -69.5 28t-21.5 94v535q-15 4 -32.5 6t-41.5 2q-54 0 -81 -21t-27 -71v-62h104v-70h-104v-431h-86v431z" />
    <glyph glyph-name=".notdef" horiz-adv-x="527" 
d="M88 689h351v-689h-351v689zM364 75v539h-201v-539h201z" />
    <glyph glyph-name=".null" horiz-adv-x="0" 
 />
    <glyph glyph-name="nonmarkingreturn" horiz-adv-x="242" 
 />
    <glyph glyph-name="space" unicode=" " horiz-adv-x="242" 
 />
    <glyph glyph-name="exclam" unicode="!" horiz-adv-x="280" 
d="M84 689h108l-21 -479h-66zM140 -9q-28 0 -47 19t-19 48t19 48t47 19q29 0 47.5 -19t18.5 -48t-18.5 -48t-47.5 -19z" />
    <glyph glyph-name="quotedbl" unicode="&#x22;" horiz-adv-x="416" 
d="M252 709h81v-256h-81v256zM82 709h81v-256h-81v256z" />
    <glyph glyph-name="numbersign" unicode="#" 
d="M69 424v69h100l29 196h69l-29 -196h116l29 196h69l-29 -196h85v-69h-95l-22 -151h89v-68h-99l-30 -205h-69l30 205h-116l-30 -205h-69l30 205h-86v68h96l22 151h-90zM228 424l-22 -151h116l22 151h-116z" />
    <glyph glyph-name="dollar" unicode="$" 
d="M304 60q43 8 60.5 35.5t17.5 83.5q0 48 -20 75t-58 47v-241zM247 630q-74 -10 -74 -103q0 -23 3.5 -39t12 -28.5t23 -22t35.5 -19.5v212zM245 783h61v-83q42 -4 74 -16.5t60 -32.5l-35 -59q-23 16 -47 25.5t-54 12.5v-235q36 -14 66 -31t52.5 -41t35 -57.5t12.5 -81.5
q0 -94 -39.5 -140.5t-124.5 -54.5v-120h-61v119q-53 3 -100 19t-82 35l31 63q34 -20 71.5 -33t81.5 -15v268q-42 16 -72 33.5t-49 40t-28 52.5t-9 73q0 82 40.5 127t115.5 50v82z" />
    <glyph glyph-name="percent" unicode="%" horiz-adv-x="836" 
d="M210 302q-35 0 -63 12.5t-48.5 35t-31.5 54.5t-11 71q0 79 42 125.5t111 46.5q34 0 62.5 -12.5t49 -35t31.5 -55t11 -71.5q0 -79 -42 -125t-111 -46zM626 -11q-35 0 -63 12.5t-48.5 35t-31.5 54.5t-11 71q0 79 42 125.5t111 46.5q34 0 62.5 -12.5t49 -35t31.5 -55
t11 -71.5q0 -79 -42 -125t-111 -46zM571 636h77l-384 -636h-77zM626 52q71 0 71 104q0 66 -17.5 90.5t-54.5 24.5t-54 -25.5t-17 -79.5q0 -65 17.5 -89.5t54.5 -24.5zM210 365q71 0 71 104q0 66 -17.5 90.5t-54.5 24.5t-54 -25.5t-17 -79.5q0 -65 17.5 -89.5t54.5 -24.5z
" />
    <glyph glyph-name="ampersand" unicode="&#x26;" horiz-adv-x="664" 
d="M287 -13q-61 0 -105 15.5t-72.5 43t-42 64.5t-13.5 80q0 74 35.5 121t110.5 82l-7 9q-32 39 -51.5 73t-19.5 78q0 69 45.5 109t123.5 40q37 0 67.5 -10t53 -30t35 -49t12.5 -68q0 -56 -36 -94.5t-99 -70.5l144 -173q20 62 31 150l83 -9q-8 -65 -21.5 -117.5t-33.5 -94.5
l114 -136h-116l-50 59q-69 -72 -188 -72zM290 58q44 0 77 16.5t57 47.5l-183 220q-48 -24 -68.5 -61.5t-20.5 -88.5q0 -30 6.5 -54.5t22.5 -42.5t42.5 -27.5t66.5 -9.5zM213 556q0 -28 14.5 -52t32.5 -46l23 -28q23 15 38.5 27.5t25 25.5t13.5 28t4 33q0 45 -18.5 67
t-53.5 22q-38 0 -58.5 -20.5t-20.5 -56.5z" />
    <glyph glyph-name="quotesingle" unicode="'" horiz-adv-x="246" 
d="M82 709h81v-256h-81v256z" />
    <glyph glyph-name="parenleft" unicode="(" horiz-adv-x="353" 
d="M285 -159q-108 52 -166 164.5t-58 297.5q0 191 56.5 305t166.5 167l29 -53q-40 -26 -69 -61t-48 -85t-28.5 -116.5t-9.5 -154.5q0 -90 9.5 -156t29 -114.5t48.5 -82t68 -58.5z" />
    <glyph glyph-name="parenright" unicode=")" horiz-adv-x="353" 
d="M39 -106q39 25 68 58.5t48.5 82t29 114.5t9.5 156q0 88 -9.5 154.5t-28.5 116.5t-48 85t-69 61l29 53q110 -53 166.5 -167t56.5 -305q0 -185 -58 -297.5t-166 -164.5z" />
    <glyph glyph-name="asterisk" unicode="*" horiz-adv-x="483" 
d="M106 352l86 128l-136 48l21 62l131 -52v151h67v-150l131 49l21 -62l-136 -47l87 -126l-54 -37l-82 125l-82 -125z" />
    <glyph glyph-name="plus" unicode="+" 
d="M234 281h-161v75h161v177h81v-177h160v-75h-160v-177h-81v177z" />
    <glyph glyph-name="comma" unicode="," horiz-adv-x="277" 
d="M70 -87q25 10 43.5 29.5t17.5 49.5q-8 1 -18.5 5t-20 12.5t-16 21t-6.5 30.5q0 30 19 49t45 19q32 0 53 -25t21 -68q0 -28 -6.5 -55t-20.5 -49.5t-37.5 -39.5t-57.5 -26z" />
    <glyph glyph-name="hyphen" unicode="-" horiz-adv-x="301" 
d="M53 316h193v-91h-193v91z" />
    <glyph glyph-name="period" unicode="." horiz-adv-x="277" 
d="M138 -9q-29 0 -48.5 20t-19.5 49t19.5 49t48.5 20t48.5 -20t19.5 -49t-19.5 -49t-48.5 -20z" />
    <glyph glyph-name="slash" unicode="/" horiz-adv-x="379" 
d="M266 761h79l-233 -910h-79z" />
    <glyph glyph-name="zero" unicode="0" 
d="M276 -12q-113 0 -171 90t-58 266q0 177 57.5 267t169.5 90q113 0 170.5 -88t57.5 -264q0 -177 -57 -269t-169 -92zM275 59q36 0 60.5 15.5t40.5 49t23 87.5t7 132q0 77 -7.5 131.5t-23 88.5t-40.5 49.5t-60 15.5q-36 0 -61 -14.5t-40.5 -47.5t-23 -86.5t-7.5 -131.5
q0 -77 7.5 -132t23.5 -90t41 -51t60 -16z" />
    <glyph glyph-name="one" unicode="1" 
d="M122 74h128v504l-126 -60l-26 47l174 131h68v-622h112v-74h-330v74z" />
    <glyph glyph-name="two" unicode="2" 
d="M82 82q97 99 154.5 164t87.5 111t39 78.5t9 67.5q0 63 -26 92.5t-81 29.5q-48 0 -84 -14t-67 -34l-34 63q46 30 91.5 45.5t100.5 15.5q92 0 143 -51.5t51 -143.5q0 -39 -13 -79.5t-45 -90t-86.5 -112.5t-137.5 -147h293v-77h-395v82z" />
    <glyph glyph-name="three" unicode="3" 
d="M229 -13q-45 0 -89.5 9t-79.5 20l16 69q35 -8 73.5 -15t75.5 -7q80 0 114 33t34 111q0 38 -9 62.5t-28 39t-47.5 20t-68.5 5.5h-37v71h48q70 0 97.5 29t27.5 89q0 50 -25.5 76.5t-82.5 26.5q-38 0 -77 -10t-75 -29l-30 63q46 26 92 39t101 13q45 0 80 -13t59.5 -35.5
t37.5 -53.5t13 -67q0 -25 -5 -49t-16 -45t-29.5 -38.5t-46.5 -29.5q58 -17 88.5 -63.5t30.5 -104.5q0 -50 -13.5 -90t-43 -68t-75.5 -43t-110 -15z" />
    <glyph glyph-name="four" unicode="4" 
d="M51 153v85l185 451h99l-190 -459h195v265l90 17v-282h77v-77h-77v-153h-90v153h-289z" />
    <glyph glyph-name="five" unicode="5" 
d="M219 -12q-45 0 -85 8.5t-75 19.5l16 70q33 -8 67 -15t70 -7q87 0 127 42.5t40 118.5q0 79 -40 110t-115 31q-34 0 -64.5 -5t-59.5 -14l30 343h321v-78h-248l-15 -178q11 2 27 3.5t28 1.5q51 0 93 -13t73 -39.5t48 -65.5t17 -90q0 -115 -67 -179t-188 -64z" />
    <glyph glyph-name="six" unicode="6" 
d="M281 -13q-48 0 -89 19.5t-71.5 56t-47.5 90.5t-17 123q0 99 24 172t69 124t110.5 82.5t148.5 48.5l18 -67q-57 -16 -102 -34.5t-78 -46.5t-55 -69t-32 -101q29 26 63 41.5t78 15.5q41 0 76 -15.5t61 -44.5t41 -70t15 -93q0 -56 -16 -99t-44.5 -72.5t-67.5 -45t-84 -15.5z
M283 371q-42 0 -72 -13.5t-59 -38.5q-1 -13 -1 -26v-26q0 -113 33.5 -161t96.5 -48q61 0 89 42t28 117q0 73 -29 113.5t-86 40.5z" />
    <glyph glyph-name="seven" unicode="7" 
d="M141 1q10 104 36.5 196.5t60.5 170.5t72.5 139.5t72.5 103.5h-315v78h401v-82q-42 -48 -81.5 -113t-71.5 -144t-53.5 -170t-27.5 -191z" />
    <glyph glyph-name="eight" unicode="8" 
d="M277 -13q-54 0 -95.5 14t-69.5 39.5t-42 61t-14 77.5q0 72 34 113t96 69q-32 16 -52 36.5t-31 42.5t-15.5 44.5t-4.5 43.5q0 80 49.5 127t144.5 47q46 0 81.5 -12.5t60 -35t37.5 -53t13 -67.5q0 -54 -25.5 -94t-92.5 -74q81 -34 111.5 -81t30.5 -112q0 -89 -56.5 -137.5
t-159.5 -48.5zM240 328q-46 -24 -69.5 -57t-23.5 -89q0 -69 33.5 -98t97.5 -29q62 0 92 28.5t30 79.5q0 46 -17.5 79t-73.5 57zM174 531q0 -22 3.5 -39t13.5 -31.5t28.5 -27t48.5 -25.5l23 -10q29 16 46 31t26 31.5t12 34t3 38.5q0 101 -104 101q-53 0 -76.5 -27t-23.5 -76z
" />
    <glyph glyph-name="nine" unicode="9" 
d="M395 370q1 14 1.5 28t0.5 29q0 57 -8.5 96t-25 63t-40.5 34.5t-55 10.5q-63 0 -90.5 -42t-27.5 -117q0 -79 27 -116.5t84 -37.5q42 0 73.5 13.5t60.5 38.5zM387 301q-29 -25 -62 -39.5t-74 -14.5q-42 0 -77.5 16.5t-62 45.5t-41.5 70t-15 91q0 56 16.5 99t46 72.5
t68.5 45t84 15.5q48 0 89 -18t70.5 -53.5t46 -89t16.5 -123.5q0 -99 -23.5 -172.5t-69 -125.5t-113.5 -84.5t-156 -49.5l-18 67q56 15 101.5 34t80.5 46.5t58.5 68t34.5 99.5z" />
    <glyph glyph-name="colon" unicode=":" horiz-adv-x="299" 
d="M149 298q-29 0 -48.5 20t-19.5 49t19.5 49t48.5 20t48.5 -20t19.5 -49t-19.5 -49t-48.5 -20zM149 -9q-29 0 -48.5 20t-19.5 49t19.5 49t48.5 20t48.5 -20t19.5 -49t-19.5 -49t-48.5 -20z" />
    <glyph glyph-name="semicolon" unicode=";" horiz-adv-x="299" 
d="M81 -87q25 10 43.5 29.5t17.5 49.5q-8 1 -18.5 5t-20 12.5t-16 21t-6.5 30.5q0 30 19 49t45 19q32 0 53 -25t21 -68q0 -28 -6.5 -55t-20.5 -49.5t-37.5 -39.5t-57.5 -26zM149 298q-29 0 -48.5 20t-19.5 49t19.5 49t48.5 20t48.5 -20t19.5 -49t-19.5 -49t-48.5 -20z" />
    <glyph glyph-name="less" unicode="&#x3c;" 
d="M104 296v44l293 199l39 -66l-231 -155l231 -155l-39 -66z" />
    <glyph glyph-name="equal" unicode="=" 
d="M73 456h402v-75h-402v75zM73 256h402v-75h-402v75z" />
    <glyph glyph-name="greater" unicode="&#x3e;" 
d="M114 163l231 155l-231 155l39 66l293 -199v-44l-293 -199z" />
    <glyph glyph-name="question" unicode="?" horiz-adv-x="440" 
d="M153 300q0 51 17.5 82t52.5 56q15 11 27.5 20.5t21 21.5t13 28t4.5 40q0 40 -18 57.5t-65 17.5q-37 0 -69 -15t-53 -29l-36 65q31 23 72.5 39.5t92.5 16.5q73 0 118.5 -35.5t45.5 -114.5q0 -39 -8.5 -64.5t-23.5 -44t-35 -33t-42 -30.5q-24 -18 -32 -38t-8 -48v-82h-75
v90zM192 -9q-28 0 -47 19t-19 48t19 48t47 19q29 0 47.5 -19t18.5 -48t-18.5 -48t-47.5 -19z" />
    <glyph glyph-name="at" unicode="@" horiz-adv-x="836" 
d="M389 -162q-168 0 -249.5 93t-81.5 268q0 91 25.5 169t75.5 136t123 91t169 33q82 0 143.5 -25t102.5 -70.5t61 -110t20 -142.5q0 -142 -42.5 -216t-135.5 -74q-63 0 -92.5 29t-35.5 75q-14 -17 -30 -32.5t-34.5 -28.5t-39.5 -20.5t-45 -7.5q-38 0 -65.5 33.5t-27.5 107.5
q0 23 2.5 49t9.5 56q23 109 67 158t116 49q35 0 61.5 -16.5t39.5 -29.5l7 35h82l-61 -285q-2 -12 -3.5 -22.5t-1.5 -19.5q0 -32 13.5 -47t33.5 -15q53 0 76.5 53t23.5 169q0 69 -12.5 122t-41.5 88t-76.5 53t-116.5 18q-81 0 -139 -27.5t-95.5 -76.5t-55.5 -115t-18 -143
q0 -76 13 -131.5t42 -91.5t76.5 -53.5t115.5 -17.5q45 0 77 6t62 17l19 -62q-35 -13 -72.5 -20.5t-84.5 -7.5zM348 74q32 0 62.5 22t56.5 48l47 216q-14 13 -34 24.5t-45 11.5q-21 0 -37 -7.5t-28.5 -25.5t-22.5 -47.5t-19 -73.5q-16 -73 -16 -113q0 -30 9 -42.5t27 -12.5z
" />
    <glyph glyph-name="A" unicode="A" horiz-adv-x="579" 
d="M241 690h102l207 -690h-101l-56 200h-213l-58 -200h-94zM203 278h168l-33 119q-11 40 -18.5 68.5t-13 51t-9 41t-7.5 38.5h-2q-4 -21 -8 -39.5t-9.5 -41t-13 -51t-19.5 -67.5z" />
    <glyph glyph-name="B" unicode="B" horiz-adv-x="574" 
d="M88 689h203q54 0 92 -13.5t61.5 -38t34 -58.5t10.5 -74q0 -54 -17.5 -86t-66.5 -53q50 -14 82.5 -55.5t32.5 -117.5q0 -51 -16 -88t-45 -60t-69 -34t-88 -11h-214v689zM292 77q72 0 101 29t29 92q0 62 -27.5 91.5t-98.5 29.5h-116v-242h112zM293 397q30 0 49.5 6.5
t30.5 19.5t15 33t4 47q0 54 -21.5 81.5t-82.5 27.5h-109v-215h114z" />
    <glyph glyph-name="C" unicode="C" horiz-adv-x="553" 
d="M332 -13q-140 0 -203.5 90.5t-63.5 264.5q0 83 15 150t47 113.5t82.5 71.5t122.5 25q102 0 165 -54l-44 -67q-26 20 -55 31.5t-66 11.5q-50 0 -82 -16.5t-51 -51t-26 -86.5t-7 -124t7.5 -125t26 -87.5t51.5 -51.5t84 -17q41 0 72 15t57 36l44 -68q-35 -26 -78 -43.5
t-98 -17.5z" />
    <glyph glyph-name="D" unicode="D" horiz-adv-x="604" 
d="M88 689h176q70 0 121.5 -17.5t85.5 -58.5t50.5 -107.5t16.5 -165.5q0 -100 -16 -165.5t-49.5 -104.5t-84 -54.5t-119.5 -15.5h-181v689zM271 79q50 0 82.5 13.5t51.5 44.5t26.5 81.5t7.5 125.5t-7 126t-25.5 82.5t-50.5 45.5t-83 14h-93v-533h91z" />
    <glyph glyph-name="E" unicode="E" horiz-adv-x="522" 
d="M98 689h353v-79h-261v-210h211v-79h-211v-241h274v-80h-366v689z" />
    <glyph glyph-name="F" unicode="F" horiz-adv-x="494" 
d="M98 689h343v-79h-251v-209h204v-79h-204v-322h-92v689z" />
    <glyph glyph-name="G" unicode="G" horiz-adv-x="620" 
d="M456 50q-27 -26 -65 -44.5t-81 -18.5q-120 0 -182.5 89.5t-62.5 265.5q0 84 15.5 150.5t47.5 113t81.5 71.5t117.5 25q57 0 101 -15.5t83 -50.5l-45 -67q-36 29 -66 41t-71 12q-48 0 -79 -16.5t-50 -50t-26.5 -85.5t-7.5 -124t7.5 -125.5t25 -89t46.5 -52.5t72 -17
q36 0 69 14.5t60 39.5v172h-129v79h219v-367h-68z" />
    <glyph glyph-name="H" unicode="H" horiz-adv-x="628" 
d="M98 689h92v-282h248v282h92v-689h-92v326h-248v-326h-92v689z" />
    <glyph glyph-name="I" unicode="I" horiz-adv-x="362" 
d="M65 51l70 8v571l-70 9v50h232v-50l-70 -9v-571l70 -8v-51h-232v51z" />
    <glyph glyph-name="J" unicode="J" horiz-adv-x="294" 
d="M11 -85q21 12 38 23.5t29 28t18.5 43t6.5 68.5v611h93v-604q0 -56 -9 -92.5t-28 -61.5t-48.5 -42.5t-70.5 -34.5z" />
    <glyph glyph-name="K" unicode="K" horiz-adv-x="551" 
d="M195 374l220 315h101l-218 -310l226 -379h-103zM98 689h92v-689h-92v689z" />
    <glyph glyph-name="L" unicode="L" horiz-adv-x="473" 
d="M98 689h92v-609h235v-80h-327v689z" />
    <glyph glyph-name="M" unicode="M" horiz-adv-x="759" 
d="M98 689h136l111 -347q16 -48 23 -87t9 -66h2q3 26 9.5 65.5t22.5 87.5l113 347h137v-689h-92v407q0 88 2.5 140.5t3.5 71.5h-2q-2 -8 -6.5 -29.5t-12 -50t-17 -60.5t-19.5 -61l-101 -290h-85l-98 278q-11 30 -20 64t-16 64.5t-11.5 53.5t-6.5 31h-2q0 -9 1 -29t2 -48
t1.5 -63t0.5 -73v-406h-85v689z" />
    <glyph glyph-name="N" unicode="N" horiz-adv-x="624" 
d="M98 689h93l192 -392q23 -46 39.5 -90.5t27.5 -79.5h2q-4 35 -7.5 87.5t-3.5 108.5v366h85v-689h-96l-176 360q-18 36 -30 63t-20.5 49t-15 41t-12.5 38h-2q4 -37 6.5 -91.5t2.5 -114.5v-345h-85v689z" />
    <glyph glyph-name="O" unicode="O" horiz-adv-x="642" 
d="M322 -13q-257 0 -257 355q0 176 65 268t190 92t190.5 -90.5t65.5 -264.5q0 -360 -254 -360zM321 60q86 0 121 68.5t35 212.5q0 146 -35 216t-121 70t-121.5 -68.5t-35.5 -212.5q0 -146 35.5 -216t121.5 -70z" />
    <glyph glyph-name="P" unicode="P" horiz-adv-x="559" 
d="M98 689h202q106 0 158 -53t52 -153q0 -101 -48 -157t-151 -56h-121v-270h-92v689zM299 348q58 0 86 28.5t28 101.5q0 74 -27.5 103t-90.5 29h-105v-262h109z" />
    <glyph glyph-name="Q" unicode="Q" horiz-adv-x="642" 
d="M576 347q0 -146 -39.5 -229.5t-123.5 -110.5l192 -49l-29 -86l-334 122q-43 16 -76 43t-55.5 69t-34 100t-11.5 136q0 176 65 268t190 92t190.5 -90.5t65.5 -264.5zM321 60q86 0 121 68.5t35 212.5q0 146 -35 216t-121 70t-121.5 -68.5t-35.5 -212.5q0 -146 35.5 -216
t121.5 -70z" />
    <glyph glyph-name="R" unicode="R" horiz-adv-x="570" 
d="M98 689h192q99 0 156 -47t57 -145q0 -79 -32.5 -122t-98.5 -61q26 -10 47 -36t40 -80l71 -198h-101l-69 194q-11 31 -22.5 51t-24 31t-27 15t-31.5 4h-65v-295h-92v689zM286 370q69 0 95 30.5t26 95.5q0 60 -26.5 87t-94.5 27h-96v-240h96z" />
    <glyph glyph-name="S" unicode="S" horiz-adv-x="530" 
d="M252 -13q-62 0 -116 19t-91 51l40 67q41 -31 75.5 -44.5t84.5 -13.5q69 0 97.5 29.5t28.5 83.5q0 31 -8.5 52.5t-25.5 37t-41.5 27t-55.5 23.5q-43 16 -74 34t-51.5 41.5t-30.5 55t-10 74.5q0 89 51.5 133.5t142.5 44.5q57 0 95 -12.5t71 -35.5l-38 -72q-30 21 -58 31
t-65 10q-50 0 -79 -22t-29 -74q0 -26 5.5 -44t18.5 -31.5t34 -24t52 -22.5q40 -15 75 -32t60.5 -42t40.5 -60t15 -87q0 -38 -10.5 -73.5t-35.5 -63t-66 -44t-102 -16.5z" />
    <glyph glyph-name="T" unicode="T" horiz-adv-x="499" 
d="M203 609h-163v80h418v-80h-163v-609h-92v609z" />
    <glyph glyph-name="U" unicode="U" horiz-adv-x="634" 
d="M282 -13q-36 0 -70 10.5t-60 35t-42 65t-16 100.5v491h92v-475q0 -38 4.5 -65.5t16 -45.5t32 -27t53.5 -9q54 0 91.5 21.5t59.5 42.5v558h92v-689h-68l-16 64q-29 -29 -71 -53t-98 -24z" />
    <glyph glyph-name="V" unicode="V" horiz-adv-x="566" 
d="M32 689h101l114 -405q14 -52 22.5 -88t15.5 -70h2q4 17 8.5 33.5t9 35.5t10 40.5t13.5 49.5l112 404h94l-205 -689h-92z" />
    <glyph glyph-name="W" unicode="W" horiz-adv-x="809" 
d="M36 689h99l69 -350q16 -81 25 -145t13 -101h2q5 37 15 102t24 135l74 359h105l74 -361q13 -65 21.5 -126.5t13.5 -108.5h2q6 46 16.5 110t25.5 142l67 344h91l-149 -689h-112l-70 342q-6 31 -12 64.5t-10.5 64.5t-8 56.5t-4.5 41.5h-2q-2 -13 -5.5 -39.5t-8 -58.5
t-10 -65t-11.5 -60l-73 -346h-113z" />
    <glyph glyph-name="X" unicode="X" 
d="M220 372l-162 317h105l112 -239l118 239h100l-166 -310l196 -379h-105l-145 301l-146 -301h-100z" />
    <glyph glyph-name="Y" unicode="Y" horiz-adv-x="536" 
d="M221 278l-194 411h107l96 -223q25 -60 40 -108q9 25 17 51.5t21 55.5l100 224h100l-195 -413v-276h-92v278z" />
    <glyph glyph-name="Z" unicode="Z" horiz-adv-x="494" 
d="M43 70l292 539h-272v80h380v-73l-290 -536h289v-80h-399v70z" />
    <glyph glyph-name="bracketleft" unicode="[" horiz-adv-x="320" 
d="M88 733h183v-67h-97v-754h97v-67h-183v888z" />
    <glyph glyph-name="backslash" unicode="\" horiz-adv-x="381" 
d="M34 761h79l233 -910h-79z" />
    <glyph glyph-name="bracketright" unicode="]" horiz-adv-x="320" 
d="M48 -88h97v754h-97v67h183v-888h-183v67z" />
    <glyph glyph-name="asciicircum" unicode="^" horiz-adv-x="498" 
d="M207 708h83l143 -268h-85l-99 183l-99 -183h-86z" />
    <glyph glyph-name="underscore" unicode="_" horiz-adv-x="341" 
d="M8 -60h325v-75h-325v75z" />
    <glyph glyph-name="grave" unicode="`" horiz-adv-x="545" 
d="M127 666l46 84l191 -133l-31 -53z" />
    <glyph glyph-name="a" unicode="a" horiz-adv-x="496" 
d="M204 -13q-72 0 -111.5 39t-39.5 117q0 85 54 126t177 41h41v39q0 21 -2 37.5t-9.5 28.5t-22 18t-38.5 6q-39 0 -76 -14t-70 -32l-33 66q38 23 83 39t105 16q74 0 111.5 -35t37.5 -116v-363h-67l-14 50q-22 -24 -53 -43.5t-73 -19.5zM215 55q37 0 64.5 20t45.5 40v133h-30
q-47 0 -76.5 -6t-46 -19t-22 -33t-5.5 -47q0 -50 16.5 -69t53.5 -19z" />
    <glyph glyph-name="b" unicode="b" horiz-adv-x="540" 
d="M307 -13q-42 0 -79 18t-59 43l-14 -48h-67v724h86v-275q27 29 60.5 47t73.5 18q36 0 67 -11.5t54.5 -41t36.5 -80t13 -127.5q0 -141 -42 -204t-130 -63zM285 61q27 0 46 6.5t31.5 26.5t18.5 57t6 97t-5 97.5t-16.5 58.5t-29.5 28.5t-43 7.5q-37 0 -64.5 -16.5
t-54.5 -42.5v-271q22 -21 50.5 -35t60.5 -14z" />
    <glyph glyph-name="c" unicode="c" horiz-adv-x="442" 
d="M253 -13q-97 0 -148 64t-51 200q0 72 14 122t39.5 81.5t62.5 45.5t84 14q43 0 76.5 -12.5t65.5 -44.5l-50 -60q-23 23 -43 33.5t-52 10.5q-29 0 -48.5 -7.5t-32.5 -28.5t-18.5 -58t-5.5 -96q0 -58 6 -95t19.5 -58.5t35 -29.5t51.5 -8q31 0 51 13t41 33l53 -57
q-28 -30 -63.5 -46t-86.5 -16z" />
    <glyph glyph-name="d" unicode="d" horiz-adv-x="541" 
d="M232 -13q-36 0 -67 11.5t-54.5 41t-36.5 80t-13 127.5q0 141 42 204t130 63q42 0 75.5 -19t57.5 -42v271h86v-724h-67l-14 52q-29 -32 -64 -48.5t-75 -16.5zM247 61q37 0 64.5 14t54.5 40v271q-22 21 -50.5 37.5t-60.5 16.5q-27 0 -46 -6.5t-31.5 -26.5t-18.5 -57t-6 -97
t5 -97.5t16.5 -58.5t29 -28.5t43.5 -7.5z" />
    <glyph glyph-name="e" unicode="e" horiz-adv-x="492" 
d="M259 -13q-98 0 -151.5 61.5t-53.5 202.5q0 71 14 121t39.5 81.5t62 46t80.5 14.5q45 0 79.5 -13.5t58.5 -43t36.5 -77t12.5 -115.5v-34h-291q1 -51 7.5 -84.5t20 -52.5t35 -26.5t52.5 -7.5q41 0 67 13.5t51 33.5l47 -62q-37 -30 -74.5 -44t-92.5 -14zM248 446
q-22 0 -39.5 -6.5t-30 -23.5t-20.5 -46t-11 -74h199q0 43 -5 72t-17 46t-30.5 24.5t-45.5 7.5z" />
    <glyph glyph-name="f" unicode="f" horiz-adv-x="305" 
d="M35 501h55v80q0 43 10.5 71.5t28.5 46t42 24.5t52 7q29 0 55.5 -6.5t48.5 -20.5l-30 -65q-31 16 -62 16q-32 0 -45.5 -17t-13.5 -55v-81h94v-70h-94v-431h-86v431h-55v70z" />
    <glyph glyph-name="g" unicode="g" horiz-adv-x="504" 
d="M250 -199q-110 0 -156.5 38t-46.5 101q0 40 20 64.5t47 41.5q-38 23 -38 70q0 37 16.5 62t38.5 42q-31 20 -47.5 53t-16.5 79q0 80 48.5 121t130.5 41q23 0 42 -3.5t36 -9.5h147v-52l-67 -18q19 -38 19 -82q0 -80 -47 -119t-129 -39q-37 0 -64 7q-12 -13 -20.5 -30
t-8.5 -31q0 -11 7.5 -18.5t27.5 -7.5h86q85 0 132.5 -36t47.5 -111q0 -77 -49.5 -120t-155.5 -43zM172 29q-17 -13 -28 -32.5t-11 -48.5q0 -20 4 -34.5t16.5 -24.5t35.5 -15t60 -5q60 0 89 22t29 70q0 40 -23.5 54t-62.5 14h-109zM245 256q45 0 67 22t22 73q0 54 -21.5 74
t-68.5 20q-44 0 -66 -21.5t-22 -74.5q0 -51 22.5 -72t66.5 -21z" />
    <glyph glyph-name="h" unicode="h" horiz-adv-x="527" 
d="M88 724h86v-279q33 31 68 50t79 19q54 0 87.5 -29t33.5 -93v-392h-86v365q0 43 -13.5 58t-47.5 15q-30 0 -62 -18t-59 -42v-378h-86v724z" />
    <glyph glyph-name="i" unicode="i" horiz-adv-x="294" 
d="M116 434l-74 12v55h160v-501h-86v434zM157 594q-26 0 -42.5 17.5t-16.5 43.5t17 44t43 18t43.5 -17.5t17.5 -44.5q0 -26 -17.5 -43.5t-44.5 -17.5z" />
    <glyph glyph-name="j" unicode="j" horiz-adv-x="294" 
d="M41 -147q24 15 38.5 29.5t22.5 32t11 41t3 56.5v422l-74 12v55h160v-490q0 -52 -7 -86t-22 -57.5t-38.5 -40t-57.5 -33.5zM157 594q-26 0 -42.5 17.5t-16.5 43.5t17 44t43 18t43.5 -17.5t17.5 -44.5q0 -26 -17.5 -43.5t-44.5 -17.5z" />
    <glyph glyph-name="k" unicode="k" horiz-adv-x="485" 
d="M88 724h86v-724h-86v724zM185 285l162 216h97l-164 -213l190 -288h-101z" />
    <glyph glyph-name="l" unicode="l" horiz-adv-x="278" 
d="M181 -10q-48 0 -69.5 28t-21.5 94v612h86v-628q0 -35 35 -35q7 0 11.5 0.5t8.5 1.5l12 -62q-11 -5 -28.5 -8t-33.5 -3z" />
    <glyph glyph-name="m" unicode="m" horiz-adv-x="767" 
d="M88 501h67l13 -62q33 33 68 54t77 21q38 0 65 -17t41 -54q36 32 72.5 51.5t75.5 19.5q51 0 83 -29t32 -93v-392h-86v365q0 43 -12 58t-43 15q-27 0 -57 -16.5t-56 -39.5v-382h-86v365q0 43 -12 58t-43 15q-28 0 -57 -18t-56 -42v-378h-86v501z" />
    <glyph glyph-name="n" unicode="n" horiz-adv-x="527" 
d="M88 501h67l13 -62q33 33 70.5 54t82.5 21q54 0 87.5 -29t33.5 -93v-392h-86v365q0 43 -13.5 58t-47.5 15q-30 0 -62 -18t-59 -42v-378h-86v501z" />
    <glyph glyph-name="o" unicode="o" horiz-adv-x="518" 
d="M259 -13q-46 0 -83.5 15t-64.5 46.5t-42 81.5t-15 121q0 70 14.5 120t41 82t64 46.5t83.5 14.5t84 -14.5t65 -46.5t42 -82t15 -120q0 -71 -14.5 -121t-41.5 -81.5t-64.5 -46.5t-83.5 -15zM259 55q28 0 49.5 9t35 31t20.5 59.5t7 95.5t-7 96t-21 60t-35.5 31t-49.5 9
q-29 0 -50 -8.5t-34.5 -30.5t-20.5 -60t-7 -96t7 -95.5t21 -60t35 -31.5t50 -9z" />
    <glyph glyph-name="p" unicode="p" horiz-adv-x="540" 
d="M88 501h67l14 -57q29 32 64 51t75 19q36 0 67 -11.5t54.5 -41t36.5 -80t13 -127.5q0 -141 -42 -204t-130 -63q-42 0 -75.5 16.5t-57.5 39.5v-244h-86v702zM285 61q27 0 46 6.5t31.5 26.5t18.5 57t6 97t-5 97.5t-16.5 58.5t-29.5 28.5t-43 7.5q-37 0 -64.5 -16.5
t-54.5 -42.5v-271q22 -21 50.5 -35t60.5 -14z" />
    <glyph glyph-name="q" unicode="q" horiz-adv-x="541" 
d="M366 47q-27 -29 -60.5 -44.5t-73.5 -15.5q-36 0 -67 11.5t-54.5 41t-36.5 80t-13 127.5q0 141 42 204t130 63q42 0 79 -20.5t59 -45.5l14 53h67v-702h-86v248zM247 61q37 0 64.5 14t54.5 40v271q-22 21 -50.5 37.5t-60.5 16.5q-27 0 -46 -6.5t-31.5 -26.5t-18.5 -57
t-6 -97t5 -97.5t16.5 -58.5t29 -28.5t43.5 -7.5z" />
    <glyph glyph-name="r" unicode="r" horiz-adv-x="358" 
d="M88 501h67l14 -71q28 35 62.5 57.5t78.5 22.5q5 0 10 -0.5t8 -2.5l-10 -92q-7 2 -14.5 3t-15.5 1q-35 0 -60.5 -12.5t-53.5 -38.5v-368h-86v501z" />
    <glyph glyph-name="s" unicode="s" horiz-adv-x="434" 
d="M203 -13q-51 0 -95.5 16.5t-70.5 37.5l36 64q32 -22 64.5 -34t69.5 -12q51 0 70 19.5t19 54.5q0 21 -5.5 34.5t-17.5 23t-32.5 16.5t-50.5 15q-26 7 -49.5 18t-41 29t-27.5 44.5t-10 63.5q0 27 9 52t28 44t49 30t71 11q45 0 78 -8.5t61 -24.5l-30 -68q-32 16 -54.5 22
t-51.5 6q-79 0 -79 -62q0 -18 4.5 -29.5t15 -20t27.5 -15t43 -13.5q29 -8 55.5 -18.5t47 -29t32.5 -46.5t12 -70q0 -78 -44 -114t-133 -36z" />
    <glyph glyph-name="t" unicode="t" horiz-adv-x="332" 
d="M39 501h57v129l86 19v-148h103v-70h-103v-329q0 -46 41 -46q17 0 30 4.5t25 9.5l17 -64q-17 -8 -36.5 -13.5t-42.5 -5.5q-51 0 -85.5 23.5t-34.5 83.5v337h-57v70z" />
    <glyph glyph-name="u" unicode="u" horiz-adv-x="530" 
d="M212 -13q-54 0 -91 31.5t-37 96.5v386h86v-359q0 -45 15.5 -62t49.5 -17q30 0 61 17.5t59 42.5v378h86v-501h-67l-13 62q-32 -32 -68 -53.5t-81 -21.5z" />
    <glyph glyph-name="v" unicode="v" horiz-adv-x="476" 
d="M30 501h94l85 -287q4 -14 8.5 -31t8.5 -35t7.5 -34.5t6.5 -29.5h1q2 11 5.5 27.5t7.5 35t8.5 36.5t9.5 33l85 285h89l-168 -501h-83z" />
    <glyph glyph-name="w" unicode="w" horiz-adv-x="697" 
d="M33 501h92l61 -257q4 -17 8 -39t7.5 -42.5t6 -37t3.5 -23.5h2q1 7 3.5 23t5.5 35.5t7 39.5t8 35l68 266h90l64 -258q4 -16 8 -35t7.5 -38.5t7 -37t5.5 -30.5h2q1 7 4 24t6.5 37.5t8 41t7.5 35.5l62 261h87l-132 -501h-86l-69 267q-5 18 -9 38.5t-8 40.5l-8 37
q-3 18 -5 29h-1q-2 -13 -5.5 -31.5t-7 -38t-8 -39.5t-8.5 -36l-68 -267h-86z" />
    <glyph glyph-name="x" unicode="x" horiz-adv-x="466" 
d="M186 276l-138 225h101l41 -76q16 -31 25.5 -49.5t20.5 -41.5h2q5 12 9 21.5t9 20t10.5 22.5t13.5 27l38 76h97l-135 -225l159 -276h-101l-59 113l-26 51q-11 23 -21 44h-2q-9 -21 -18.5 -40t-27.5 -53l-61 -115h-97z" />
    <glyph glyph-name="y" unicode="y" horiz-adv-x="478" 
d="M69 -137q30 8 51.5 17t37.5 24t27 38t22 58h-21l-156 501h94l84 -295q8 -30 16.5 -69t13.5 -68h1q5 27 12.5 63.5t18.5 73.5l89 295h89l-166 -517q-18 -56 -36 -89.5t-40.5 -53.5t-50.5 -30t-67 -18z" />
    <glyph glyph-name="z" unicode="z" horiz-adv-x="430" 
d="M49 79l236 352h-214v70h303v-78l-234 -353h242v-70h-333v79z" />
    <glyph glyph-name="braceleft" unicode="{" horiz-adv-x="375" 
d="M252 -155q-25 0 -46.5 6.5t-37.5 21t-25.5 38.5t-9.5 60v207q0 46 -20 60t-67 14v78q24 0 40.5 3t27 11t15 22.5t4.5 37.5v203q0 36 9.5 60t25.5 38.5t37.5 21t46.5 6.5h74v-67h-61q-29 0 -37.5 -15t-8.5 -52v-205q0 -30 -5.5 -48.5t-15.5 -30t-23.5 -16.5t-28.5 -7v-2
q15 -2 28.5 -7t23.5 -16.5t15.5 -30t5.5 -48.5v-209q0 -37 8.5 -52t37.5 -15h61v-67h-74z" />
    <glyph glyph-name="bar" unicode="|" horiz-adv-x="260" 
d="M99 761h62v-910h-62v910z" />
    <glyph glyph-name="braceright" unicode="}" horiz-adv-x="375" 
d="M48 -88h61q29 0 37.5 15t8.5 52v209q0 30 5.5 48.5t15.5 30t23.5 16.5t28.5 7v2q-15 2 -28.5 7t-23.5 16.5t-15.5 30t-5.5 48.5v205q0 37 -8.5 52t-37.5 15h-61v67h74q25 0 46.5 -6.5t37.5 -21t25.5 -38.5t9.5 -60v-203q0 -23 4.5 -37.5t15 -22.5t27 -11t40.5 -3v-78
q-47 0 -67 -14t-20 -60v-207q0 -36 -9.5 -60t-25.5 -38.5t-37.5 -21t-46.5 -6.5h-74v67z" />
    <glyph glyph-name="asciitilde" unicode="~" horiz-adv-x="519" 
d="M70 288q23 51 53 77t69 26q23 0 41 -7t34.5 -15t31.5 -15t32 -7q21 0 34 16.5t27 36.5l56 -33q-23 -51 -53 -77t-69 -26q-23 0 -41 7t-34.5 15t-31.5 15t-32 7q-21 0 -34 -16.5t-27 -36.5z" />
    <glyph glyph-name="uni00A0" unicode="&#xa0;" horiz-adv-x="242" 
 />
    <glyph glyph-name="exclamdown" unicode="&#xa1;" horiz-adv-x="282" 
d="M109 292h66l21 -479h-108zM140 377q-29 0 -47.5 19t-18.5 48t18.5 48t47.5 19q28 0 47 -19t19 -48t-19 -48t-47 -19z" />
    <glyph glyph-name="cent" unicode="&#xa2;" 
d="M273 -10q-83 11 -127.5 74.5t-44.5 186.5q0 64 12 111t34.5 78.5t54 49t71.5 22.5v124h61v-123q37 -2 67 -15.5t59 -40.5l-48 -57q-18 20 -37 29.5t-43 12.5v-384q26 3 46 15.5t38 29.5l51 -54q-27 -29 -58.5 -43.5t-74.5 -17.5v-119h-61v121zM193 251q0 -48 4.5 -82.5
t14.5 -57t25.5 -34.5t37.5 -17v382q-22 -4 -37.5 -15t-25.5 -33.5t-14.5 -57t-4.5 -85.5z" />
    <glyph glyph-name="sterling" unicode="&#xa3;" 
d="M253 310q4 -20 6.5 -38.5t2.5 -38.5q0 -21 -2.5 -42.5t-10 -41.5t-21 -38.5t-35.5 -33.5h293v-77h-407v82q31 15 50.5 30.5t30 33.5t14 39t3.5 46q0 20 -3.5 39.5t-9.5 39.5h-88v77h63q-11 32 -18.5 65.5t-7.5 69.5q0 42 14 75t39 56.5t60.5 36t79.5 12.5q55 0 97 -16
t88 -46l-34 -63q-31 20 -63.5 34.5t-80.5 14.5q-52 0 -79 -25.5t-27 -73.5q0 -32 8 -67.5t19 -72.5h187v-77h-168z" />
    <glyph glyph-name="currency" unicode="&#xa4;" 
d="M33 122l74 77q-26 52 -26 122q0 69 25 119l-76 79l54 51l68 -69q51 43 122 43q72 0 122 -42l66 68l56 -53l-73 -77q25 -50 25 -119t-25 -121l76 -80l-54 -51l-69 70q-51 -42 -122 -42q-70 0 -120 41l-67 -70zM276 169q25 0 44.5 7t32 24.5t19 46.5t6.5 73t-6.5 73.5
t-19.5 47t-32.5 24.5t-44.5 7q-26 0 -45 -7t-31.5 -24.5t-19 -46.5t-6.5 -73t6.5 -73t19.5 -46.5t32 -25t45 -7.5z" />
    <glyph glyph-name="yen" unicode="&#xa5;" 
d="M48 360v66h118l-132 263h106l96 -207q14 -29 23 -55.5t17 -52.5q8 26 16 52.5t22 54.5l100 208h101l-132 -263h118v-66h-150l-31 -61v-23h181v-66h-181v-210h-92v210h-180v66h180v25l-29 59h-151z" />
    <glyph glyph-name="brokenbar" unicode="&#xa6;" horiz-adv-x="260" 
d="M99 761h62v-384h-62v384zM99 235h62v-384h-62v384z" />
    <glyph glyph-name="section" unicode="&#xa7;" 
d="M159 446q-22 18 -34.5 44.5t-12.5 65.5q0 30 9 56.5t29 46.5t53 31.5t80 11.5q55 0 89.5 -12t64.5 -29l-32 -65q-16 9 -29.5 15.5t-27.5 11t-29 6.5t-33 2q-52 0 -71.5 -18.5t-19.5 -53.5q0 -20 6.5 -32t20.5 -20.5t36.5 -16t54.5 -16.5q38 -11 71 -23t57 -31t38 -47
t14 -72q0 -55 -25 -89t-76 -51q24 -19 37.5 -47t13.5 -70q0 -78 -47 -118t-136 -40q-63 0 -105 16.5t-67 38.5l36 62q14 -11 27.5 -19.5t29 -14.5t35.5 -9.5t46 -3.5q95 0 95 84q0 22 -10 36.5t-28.5 25t-43.5 19t-55 17.5q-39 12 -69.5 26t-51.5 34.5t-32 48.5t-11 67
q0 45 24 79.5t79 52.5zM321 199q49 10 67.5 35.5t18.5 62.5q0 23 -8 37t-24.5 24t-42.5 17.5t-61 18.5q-11 3 -21 6.5t-20 6.5q-28 -4 -45.5 -13t-28 -21t-14.5 -27.5t-4 -31.5q0 -38 28.5 -57t94.5 -38q32 -9 60 -20z" />
    <glyph glyph-name="dieresis" unicode="&#xa8;" horiz-adv-x="545" 
d="M371 567q-23 0 -41 17.5t-18 42.5t18 42.5t41 17.5t41 -17.5t18 -42.5t-18 -42.5t-41 -17.5zM172 567q-23 0 -41 17.5t-18 42.5t18 42.5t41 17.5t41 -17.5t18 -42.5t-18 -42.5t-41 -17.5z" />
    <glyph glyph-name="copyright" unicode="&#xa9;" horiz-adv-x="765" 
d="M382 -17q-72 0 -131 26.5t-101 75t-65 117t-23 153.5t23 153.5t65 117t101 75t131 26.5t131 -26.5t101 -75t65 -117t23 -153.5t-23 -153.5t-65 -117t-101 -75t-131 -26.5zM382 31q61 0 109.5 23t82.5 65.5t52.5 102t18.5 133.5t-18.5 133.5t-52.5 101.5t-82.5 65
t-109.5 23t-109.5 -23t-82.5 -65t-52 -101.5t-18 -133.5t18 -133.5t52 -102t82.5 -65.5t109.5 -23zM386 123q-80 0 -126 54.5t-46 173.5q0 65 12.5 108.5t35.5 69.5t55 37t70 11t71 -16t60 -54l-50 -45q-20 26 -38 37.5t-47 11.5q-22 0 -37.5 -5.5t-26 -23t-15.5 -49
t-5 -83.5q0 -51 5.5 -82.5t16.5 -49.5t28 -24t40 -6q27 0 45.5 13.5t35.5 35.5l52 -42q-26 -35 -57.5 -53.5t-78.5 -18.5z" />
    <glyph glyph-name="ordfeminine" unicode="&#xaa;" horiz-adv-x="456" 
d="M195 174q-66 0 -101 35.5t-35 105.5q0 78 48.5 114t159.5 36h36v33q0 18 -2 33t-8.5 25t-19.5 15.5t-34 5.5q-35 0 -68 -12.5t-63 -29.5l-30 64q35 21 75 35.5t95 14.5q67 0 101.5 -32t34.5 -106v-326h-63l-13 45q-19 -22 -47 -39t-66 -17zM207 238q32 0 56 17t40 33v119
h-25q-42 0 -68 -5.5t-40.5 -16.5t-19.5 -28.5t-5 -41.5q0 -43 15 -60t47 -17z" />
    <glyph glyph-name="guillemotleft" unicode="&#xab;" horiz-adv-x="513" 
d="M250 248l139 222l65 -44l-110 -178l109 -179l-64 -42zM56 248l139 222l65 -44l-110 -178l109 -179l-64 -42z" />
    <glyph glyph-name="logicalnot" unicode="&#xac;" 
d="M356 314h-252v75h333v-215h-81v140z" />
    <glyph glyph-name="uni00AD" unicode="&#xad;" horiz-adv-x="301" 
d="M53 316h193v-91h-193v91z" />
    <glyph glyph-name="registered" unicode="&#xae;" horiz-adv-x="549" 
d="M274 195q-50 0 -91.5 18.5t-71 52.5t-45.5 82t-16 107t16 107.5t45.5 82.5t71 52.5t91.5 18.5t91.5 -18.5t71 -52.5t45.5 -82.5t16 -107.5t-16 -107t-45.5 -82t-71 -52.5t-91.5 -18.5zM274 242q81 0 125.5 56.5t44.5 156.5q0 101 -44.5 157.5t-125.5 56.5
q-82 0 -126 -56.5t-44 -157.5q0 -100 44 -156.5t126 -56.5zM185 602h88q52 0 75 -22t23 -60q0 -35 -13 -51.5t-37 -23.5q25 -8 37 -51l24 -80h-63l-23 82q-6 22 -14 29t-20 7h-19v-118h-58v288zM275 477q20 0 28 9.5t8 30.5q0 36 -36 36h-32v-76h32z" />
    <glyph glyph-name="macron" unicode="&#xaf;" horiz-adv-x="545" 
d="M143 689h257v-74h-257v74z" />
    <glyph glyph-name="degree" unicode="&#xb0;" horiz-adv-x="403" 
d="M201 357q-74 0 -115 45.5t-41 124.5q0 78 42.5 123.5t111.5 45.5q75 0 116.5 -45.5t41.5 -125.5q0 -39 -11.5 -70t-32 -52.5t-49.5 -33.5t-63 -12zM202 414q42 0 61.5 26.5t19.5 80.5q0 66 -20.5 92t-62.5 26q-82 0 -82 -108q0 -66 21 -91.5t63 -25.5z" />
    <glyph glyph-name="plusminus" unicode="&#xb1;" 
d="M234 285h-161v75h161v147h81v-147h160v-75h-160v-137h-81v137zM73 105h402v-75h-402v75z" />
    <glyph glyph-name="twosuperior" unicode="&#xb2;" horiz-adv-x="361" 
d="M52 279q58 46 94 80t56 60.5t27.5 48.5t7.5 45q0 38 -19 55t-52 17q-28 0 -48 -6.5t-46 -20.5l-23 52q25 14 54 24.5t70 10.5q63 0 100.5 -32.5t37.5 -95.5q0 -29 -8.5 -55.5t-29 -55t-54.5 -60.5t-85 -70h183v-57h-265v60z" />
    <glyph glyph-name="threesuperior" unicode="&#xb3;" horiz-adv-x="366" 
d="M155 175q-42 0 -73 8t-55 19l16 52q22 -8 47 -14.5t56 -6.5q95 0 95 83q0 46 -25 63.5t-65 17.5h-40v53h36q81 0 81 70q0 67 -75 67q-28 0 -50 -7t-42 -18l-20 50q26 15 55 24t69 9q63 0 98.5 -32t35.5 -84q0 -42 -19.5 -66.5t-51.5 -36.5q39 -10 63 -38t24 -77
q0 -62 -40.5 -99t-119.5 -37z" />
    <glyph glyph-name="acute" unicode="&#xb4;" horiz-adv-x="545" 
d="M180 617l191 133l46 -84l-206 -102z" />
    <glyph glyph-name="mu" unicode="&#xb5;" horiz-adv-x="536" 
d="M450 -13q-35 0 -54 23t-22 58h-2q-18 -37 -46 -59t-70 -22q-26 0 -47 9.5t-34 22.5v-220h-87v702h87v-396q14 -23 38 -33.5t48 -10.5q26 0 44.5 12t30.5 31t17.5 43t5.5 48v306h86v-401q0 -29 7 -36.5t20 -7.5q10 0 20 2l11 -59q-12 -6 -25.5 -8.5t-27.5 -3.5z" />
    <glyph glyph-name="paragraph" unicode="&#xb6;" horiz-adv-x="575" 
d="M246 347h-10q-86 0 -133 45.5t-47 125.5q0 84 47 127.5t133 43.5h251v-776h-78v704h-85v-704h-78v434z" />
    <glyph glyph-name="periodcentered" unicode="&#xb7;" horiz-adv-x="279" 
d="M139 265q-29 0 -48.5 20t-19.5 49t19.5 49t48.5 20t48.5 -20t19.5 -49t-19.5 -49t-48.5 -20z" />
    <glyph glyph-name="cedilla" unicode="&#xb8;" horiz-adv-x="545" 
d="M272 -214q-22 0 -43 6.5t-36 17.5l22 46q14 -7 26.5 -11t29.5 -4q20 0 28.5 7.5t8.5 24.5q0 33 -36 33q-14 0 -24.5 -1.5t-18.5 -3.5l33 99l4 16h56l-5 -16l-19 -51q40 -3 56.5 -24.5t16.5 -56.5q0 -16 -5 -31t-16.5 -26t-30.5 -18t-47 -7z" />
    <glyph glyph-name="onesuperior" unicode="&#xb9;" horiz-adv-x="327" 
d="M58 271h82v287l-76 -39l-20 38l114 87h55v-373h76v-52h-231v52z" />
    <glyph glyph-name="ordmasculine" unicode="&#xba;" horiz-adv-x="491" 
d="M245 174q-42 0 -76 13.5t-58 42t-37.5 73.5t-13.5 109t13 109t37 73.5t57.5 41.5t75.5 13t76 -13t59 -41.5t38.5 -74t13.5 -109.5q0 -63 -13.5 -108t-37.5 -73.5t-58 -42t-76 -13.5zM245 239q25 0 43.5 8t30.5 27.5t18 52.5t6 84t-6 84.5t-18 53t-31 27t-44 7.5
t-43.5 -7.5t-30.5 -27t-18 -52.5t-6 -85q0 -51 6 -84t18.5 -52.5t31 -27.5t43.5 -8z" />
    <glyph glyph-name="guillemotright" unicode="&#xbb;" horiz-adv-x="513" 
d="M252 71l110 178l-109 179l64 42l139 -221l-139 -222zM58 71l110 178l-109 179l64 42l139 -221l-139 -222z" />
    <glyph glyph-name="onequarter" unicode="&#xbc;" horiz-adv-x="942" 
d="M58 271h82v287l-76 -39l-20 38l114 87h55v-373h76v-52h-231v52zM635 636h77l-384 -636h-77zM588 59v63l129 296h73l-131 -300h150v173l71 12v-185h48v-59h-48v-95h-71v95h-221z" />
    <glyph glyph-name="onehalf" unicode="&#xbd;" horiz-adv-x="998" 
d="M58 271h82v287l-76 -39l-20 38l114 87h55v-373h76v-52h-231v52zM635 636h77l-384 -636h-77zM689 60q58 46 94 80t56 60.5t27.5 48.5t7.5 45q0 38 -19 55t-52 17q-28 0 -48 -6.5t-46 -20.5l-23 52q25 14 54 24.5t70 10.5q63 0 100.5 -32.5t37.5 -95.5q0 -29 -8.5 -55.5
t-29 -55t-54.5 -60.5t-85 -70h183v-57h-265v60z" />
    <glyph glyph-name="threequarters" unicode="&#xbe;" horiz-adv-x="981" 
d="M155 175q-42 0 -73 8t-55 19l16 52q22 -8 47 -14.5t56 -6.5q95 0 95 83q0 46 -25 63.5t-65 17.5h-40v53h36q81 0 81 70q0 67 -75 67q-28 0 -50 -7t-42 -18l-20 50q26 15 55 24t69 9q63 0 98.5 -32t35.5 -84q0 -42 -19.5 -66.5t-51.5 -36.5q39 -10 63 -38t24 -77
q0 -62 -40.5 -99t-119.5 -37zM674 636h77l-384 -636h-77zM627 59v63l129 296h73l-131 -300h150v173l71 12v-185h48v-59h-48v-95h-71v95h-221z" />
    <glyph glyph-name="questiondown" unicode="&#xbf;" horiz-adv-x="440" 
d="M226 -198q-73 0 -118.5 35.5t-45.5 114.5q0 39 8.5 64.5t23.5 44t35 32.5t42 31q24 18 32 38t8 48v82h75v-90q0 -51 -17.5 -82t-52.5 -56q-15 -11 -27.5 -20.5t-21 -21.5t-13 -28t-4.5 -40q0 -40 18 -57.5t65 -17.5q37 0 69 15t53 29l36 -65q-31 -23 -72.5 -39.5
t-92.5 -16.5zM247 377q-29 0 -47.5 19t-18.5 48t18.5 48t47.5 19q28 0 47 -19t19 -48t-19 -48t-47 -19z" />
    <glyph glyph-name="Agrave" unicode="&#xc0;" horiz-adv-x="579" 
d="M241 690h102l207 -690h-101l-56 200h-213l-58 -200h-94zM203 278h168l-33 119q-11 40 -18.5 68.5t-13 51t-9 41t-7.5 38.5h-2q-4 -21 -8 -39.5t-9.5 -41t-13 -51t-19.5 -67.5zM144 840l46 84l191 -133l-31 -53z" />
    <glyph glyph-name="Aacute" unicode="&#xc1;" horiz-adv-x="579" 
d="M241 690h102l207 -690h-101l-56 200h-213l-58 -200h-94zM203 278h168l-33 119q-11 40 -18.5 68.5t-13 51t-9 41t-7.5 38.5h-2q-4 -21 -8 -39.5t-9.5 -41t-13 -51t-19.5 -67.5zM197 791l191 133l46 -84l-206 -102z" />
    <glyph glyph-name="Acircumflex" unicode="&#xc2;" horiz-adv-x="579" 
d="M241 690h102l207 -690h-101l-56 200h-213l-58 -200h-94zM203 278h168l-33 119q-11 40 -18.5 68.5t-13 51t-9 41t-7.5 38.5h-2q-4 -21 -8 -39.5t-9.5 -41t-13 -51t-19.5 -67.5zM136 789l124 127h58l123 -127l-33 -45l-119 84l-120 -84z" />
    <glyph glyph-name="Atilde" unicode="&#xc3;" horiz-adv-x="579" 
d="M241 690h102l207 -690h-101l-56 200h-213l-58 -200h-94zM203 278h168l-33 119q-11 40 -18.5 68.5t-13 51t-9 41t-7.5 38.5h-2q-4 -21 -8 -39.5t-9.5 -41t-13 -51t-19.5 -67.5zM131 786q40 86 103 86q20 0 35 -6t28.5 -13t26.5 -13t28 -6q17 0 28 11.5t24 28.5l45 -33
q-40 -86 -103 -86q-20 0 -35 6t-28.5 13t-26.5 13t-28 6q-17 0 -28 -11.5t-24 -28.5z" />
    <glyph glyph-name="Adieresis" unicode="&#xc4;" horiz-adv-x="579" 
d="M241 690h102l207 -690h-101l-56 200h-213l-58 -200h-94zM203 278h168l-33 119q-11 40 -18.5 68.5t-13 51t-9 41t-7.5 38.5h-2q-4 -21 -8 -39.5t-9.5 -41t-13 -51t-19.5 -67.5zM190 741q-23 0 -41 17.5t-18 42.5t18 42.5t41 17.5t41 -17.5t18 -42.5t-18 -42.5t-41 -17.5z
M388 741q-23 0 -41 17.5t-18 42.5t18 42.5t41 17.5t41 -17.5t18 -42.5t-18 -42.5t-41 -17.5z" />
    <glyph glyph-name="Aring" unicode="&#xc5;" horiz-adv-x="579" 
d="M241 690h102l207 -690h-101l-56 200h-213l-58 -200h-94zM203 278h168l-33 119q-11 40 -18.5 68.5t-13 51t-9 41t-7.5 38.5h-2q-4 -21 -8 -39.5t-9.5 -41t-13 -51t-19.5 -67.5zM291 725q-23 0 -41.5 8.5t-31.5 23t-20 33.5t-7 40t7 40t20 33.5t31.5 23t41.5 8.5t41.5 -8.5
t31.5 -23t20 -33.5t7 -40t-7 -40t-20 -33.5t-31.5 -23t-41.5 -8.5zM291 774q43 0 43 56t-43 56t-43 -56t43 -56z" />
    <glyph glyph-name="AE" unicode="&#xc6;" horiz-adv-x="854" 
d="M390 689h393v-79h-261v-210h211v-79h-211v-241h274v-80h-366v183h-215l-94 -183h-97zM255 261h175v190l3 167h-2q-8 -20 -15.5 -37t-15.5 -35t-18 -37.5t-23 -44.5z" />
    <glyph glyph-name="Ccedilla" unicode="&#xc7;" horiz-adv-x="553" 
d="M276 -214q-22 0 -43 6.5t-36 17.5l22 46q14 -7 26.5 -11t29.5 -4q20 0 28.5 7.5t8.5 24.5q0 33 -36 33q-14 0 -24.5 -1.5t-18.5 -3.5l31 93q-104 20 -151.5 108t-47.5 240q0 83 15 150t47 113.5t82.5 71.5t122.5 25q102 0 165 -54l-44 -67q-26 20 -55 31.5t-66 11.5
q-50 0 -82 -16.5t-51 -51t-26 -86.5t-7 -124t7.5 -125t26 -87.5t51.5 -51.5t84 -17q41 0 72 15t57 36l44 -68q-35 -26 -78 -43.5t-98 -17.5h-16l-14 -38q40 -3 56.5 -24.5t16.5 -56.5q0 -16 -5 -31t-16.5 -26t-30.5 -18t-47 -7z" />
    <glyph glyph-name="Egrave" unicode="&#xc8;" horiz-adv-x="522" 
d="M98 689h353v-79h-261v-210h211v-79h-211v-241h274v-80h-366v689zM145 840l46 84l191 -133l-31 -53z" />
    <glyph glyph-name="Eacute" unicode="&#xc9;" horiz-adv-x="522" 
d="M98 689h353v-79h-261v-210h211v-79h-211v-241h274v-80h-366v689zM168 791l191 133l46 -84l-206 -102z" />
    <glyph glyph-name="Ecircumflex" unicode="&#xca;" horiz-adv-x="522" 
d="M98 689h353v-79h-261v-210h211v-79h-211v-241h274v-80h-366v689zM120 789l124 127h58l123 -127l-33 -45l-119 84l-120 -84z" />
    <glyph glyph-name="Edieresis" unicode="&#xcb;" horiz-adv-x="522" 
d="M98 689h353v-79h-261v-210h211v-79h-211v-241h274v-80h-366v689zM173 741q-23 0 -41 17.5t-18 42.5t18 42.5t41 17.5t41 -17.5t18 -42.5t-18 -42.5t-41 -17.5zM371 741q-23 0 -41 17.5t-18 42.5t18 42.5t41 17.5t41 -17.5t18 -42.5t-18 -42.5t-41 -17.5z" />
    <glyph glyph-name="Igrave" unicode="&#xcc;" horiz-adv-x="362" 
d="M65 51l70 8v571l-70 9v50h232v-50l-70 -9v-571l70 -8v-51h-232v51zM51 840l46 84l191 -133l-31 -53z" />
    <glyph glyph-name="Iacute" unicode="&#xcd;" horiz-adv-x="362" 
d="M65 51l70 8v571l-70 9v50h232v-50l-70 -9v-571l70 -8v-51h-232v51zM77 791l191 133l46 -84l-206 -102z" />
    <glyph glyph-name="Icircumflex" unicode="&#xce;" horiz-adv-x="362" 
d="M65 51l70 8v571l-70 9v50h232v-50l-70 -9v-571l70 -8v-51h-232v51zM28 789l124 127h58l123 -127l-33 -45l-119 84l-120 -84z" />
    <glyph glyph-name="Idieresis" unicode="&#xcf;" horiz-adv-x="362" 
d="M65 51l70 8v571l-70 9v50h232v-50l-70 -9v-571l70 -8v-51h-232v51zM82 741q-23 0 -41 17.5t-18 42.5t18 42.5t41 17.5t41 -17.5t18 -42.5t-18 -42.5t-41 -17.5zM280 741q-23 0 -41 17.5t-18 42.5t18 42.5t41 17.5t41 -17.5t18 -42.5t-18 -42.5t-41 -17.5z" />
    <glyph glyph-name="Eth" unicode="&#xd0;" horiz-adv-x="602" 
d="M25 380h62v309h176q70 0 121.5 -17.5t85.5 -58.5t50.5 -107.5t16.5 -165.5q0 -100 -16 -165.5t-49.5 -104.5t-84 -54.5t-119.5 -15.5h-181v301h-62v79zM270 79q50 0 82.5 13.5t51.5 44.5t26.5 81.5t7.5 125.5t-7 126t-25.5 82.5t-50.5 45.5t-83 14h-93v-232h138v-79h-138
v-222h91z" />
    <glyph glyph-name="Ntilde" unicode="&#xd1;" horiz-adv-x="624" 
d="M98 689h93l192 -392q23 -46 39.5 -90.5t27.5 -79.5h2q-4 35 -7.5 87.5t-3.5 108.5v366h85v-689h-96l-176 360q-18 36 -30 63t-20.5 49t-15 41t-12.5 38h-2q4 -37 6.5 -91.5t2.5 -114.5v-345h-85v689zM159 786q40 86 103 86q20 0 35 -6t28.5 -13t26.5 -13t28 -6
q17 0 28 11.5t24 28.5l45 -33q-40 -86 -103 -86q-20 0 -35 6t-28.5 13t-26.5 13t-28 6q-17 0 -28 -11.5t-24 -28.5z" />
    <glyph glyph-name="Ograve" unicode="&#xd2;" horiz-adv-x="642" 
d="M322 -13q-257 0 -257 355q0 176 65 268t190 92t190.5 -90.5t65.5 -264.5q0 -360 -254 -360zM321 60q86 0 121 68.5t35 212.5q0 146 -35 216t-121 70t-121.5 -68.5t-35.5 -212.5q0 -146 35.5 -216t121.5 -70zM175 840l46 84l191 -133l-31 -53z" />
    <glyph glyph-name="Oacute" unicode="&#xd3;" horiz-adv-x="642" 
d="M322 -13q-257 0 -257 355q0 176 65 268t190 92t190.5 -90.5t65.5 -264.5q0 -360 -254 -360zM321 60q86 0 121 68.5t35 212.5q0 146 -35 216t-121 70t-121.5 -68.5t-35.5 -212.5q0 -146 35.5 -216t121.5 -70zM228 791l191 133l46 -84l-206 -102z" />
    <glyph glyph-name="Ocircumflex" unicode="&#xd4;" horiz-adv-x="642" 
d="M322 -13q-257 0 -257 355q0 176 65 268t190 92t190.5 -90.5t65.5 -264.5q0 -360 -254 -360zM321 60q86 0 121 68.5t35 212.5q0 146 -35 216t-121 70t-121.5 -68.5t-35.5 -212.5q0 -146 35.5 -216t121.5 -70zM167 789l124 127h58l123 -127l-33 -45l-119 84l-120 -84z" />
    <glyph glyph-name="Otilde" unicode="&#xd5;" horiz-adv-x="642" 
d="M322 -13q-257 0 -257 355q0 176 65 268t190 92t190.5 -90.5t65.5 -264.5q0 -360 -254 -360zM321 60q86 0 121 68.5t35 212.5q0 146 -35 216t-121 70t-121.5 -68.5t-35.5 -212.5q0 -146 35.5 -216t121.5 -70zM163 786q40 86 103 86q20 0 35 -6t28.5 -13t26.5 -13t28 -6
q17 0 28 11.5t24 28.5l45 -33q-40 -86 -103 -86q-20 0 -35 6t-28.5 13t-26.5 13t-28 6q-17 0 -28 -11.5t-24 -28.5z" />
    <glyph glyph-name="Odieresis" unicode="&#xd6;" horiz-adv-x="642" 
d="M322 -13q-257 0 -257 355q0 176 65 268t190 92t190.5 -90.5t65.5 -264.5q0 -360 -254 -360zM321 60q86 0 121 68.5t35 212.5q0 146 -35 216t-121 70t-121.5 -68.5t-35.5 -212.5q0 -146 35.5 -216t121.5 -70zM220 741q-23 0 -41 17.5t-18 42.5t18 42.5t41 17.5t41 -17.5
t18 -42.5t-18 -42.5t-41 -17.5zM419 741q-23 0 -41 17.5t-18 42.5t18 42.5t41 17.5t41 -17.5t18 -42.5t-18 -42.5t-41 -17.5z" />
    <glyph glyph-name="multiply" unicode="&#xd7;" 
d="M275 261l-127 -136l-55 58l128 134l-130 137l53 56l131 -137l126 135l55 -58l-127 -133l129 -138l-53 -56z" />
    <glyph glyph-name="Oslash" unicode="&#xd8;" horiz-adv-x="642" 
d="M67 -48l66 118q-68 87 -68 272q0 176 65 268t190 92q82 0 140 -41l58 103l62 -38l-67 -120q63 -92 63 -259q0 -360 -254 -360q-80 0 -134 33l-59 -106zM164 346q0 -57 5 -102t16 -79l235 423q-36 39 -99 39q-86 0 -121.5 -68.5t-35.5 -212.5zM321 60q86 0 121 68.5
t35 212.5q0 103 -18 168l-231 -417q33 -32 93 -32z" />
    <glyph glyph-name="Ugrave" unicode="&#xd9;" horiz-adv-x="634" 
d="M282 -13q-36 0 -70 10.5t-60 35t-42 65t-16 100.5v491h92v-475q0 -38 4.5 -65.5t16 -45.5t32 -27t53.5 -9q54 0 91.5 21.5t59.5 42.5v558h92v-689h-68l-16 64q-29 -29 -71 -53t-98 -24zM171 840l46 84l191 -133l-31 -53z" />
    <glyph glyph-name="Uacute" unicode="&#xda;" horiz-adv-x="634" 
d="M282 -13q-36 0 -70 10.5t-60 35t-42 65t-16 100.5v491h92v-475q0 -38 4.5 -65.5t16 -45.5t32 -27t53.5 -9q54 0 91.5 21.5t59.5 42.5v558h92v-689h-68l-16 64q-29 -29 -71 -53t-98 -24zM224 791l191 133l46 -84l-206 -102z" />
    <glyph glyph-name="Ucircumflex" unicode="&#xdb;" horiz-adv-x="634" 
d="M282 -13q-36 0 -70 10.5t-60 35t-42 65t-16 100.5v491h92v-475q0 -38 4.5 -65.5t16 -45.5t32 -27t53.5 -9q54 0 91.5 21.5t59.5 42.5v558h92v-689h-68l-16 64q-29 -29 -71 -53t-98 -24zM163 789l124 127h58l123 -127l-33 -45l-119 84l-120 -84z" />
    <glyph glyph-name="Udieresis" unicode="&#xdc;" horiz-adv-x="634" 
d="M282 -13q-36 0 -70 10.5t-60 35t-42 65t-16 100.5v491h92v-475q0 -38 4.5 -65.5t16 -45.5t32 -27t53.5 -9q54 0 91.5 21.5t59.5 42.5v558h92v-689h-68l-16 64q-29 -29 -71 -53t-98 -24zM217 741q-23 0 -41 17.5t-18 42.5t18 42.5t41 17.5t41 -17.5t18 -42.5t-18 -42.5
t-41 -17.5zM415 741q-23 0 -41 17.5t-18 42.5t18 42.5t41 17.5t41 -17.5t18 -42.5t-18 -42.5t-41 -17.5z" />
    <glyph glyph-name="Yacute" unicode="&#xdd;" horiz-adv-x="536" 
d="M221 278l-194 411h107l96 -223q25 -60 40 -108q9 25 17 51.5t21 55.5l100 224h100l-195 -413v-276h-92v278zM205 791l191 133l46 -84l-206 -102z" />
    <glyph glyph-name="Thorn" unicode="&#xde;" horiz-adv-x="562" 
d="M97 689h92v-110h110q106 0 158 -53t52 -153q0 -101 -48 -157t-151 -56h-121v-160h-92v689zM298 238q58 0 86 28.5t28 101.5q0 74 -27.5 103t-90.5 29h-105v-262h109z" />
    <glyph glyph-name="germandbls" unicode="&#xdf;" 
d="M322 -8q-36 0 -58 5t-35 10l15 63q12 -4 28 -7t39 -3q47 0 73.5 26t26.5 79q0 27 -7.5 47t-20 35t-28 27t-30.5 23q-30 22 -50.5 44t-20.5 59q0 32 15.5 51t34.5 35t34.5 35t15.5 51q0 42 -21 58.5t-66 16.5q-53 0 -72.5 -35.5t-19.5 -104.5v-507h-86v517q0 97 47.5 147
t130.5 50q82 0 127 -37.5t45 -106.5q0 -42 -16 -68t-35.5 -42.5t-35.5 -28t-16 -25.5q0 -7 3 -13t10.5 -12.5t20 -15.5t31.5 -23q16 -12 34 -27.5t33 -37t25 -49t10 -63.5q0 -44 -14 -76.5t-39 -54t-58 -32t-70 -10.5z" />
    <glyph glyph-name="agrave" unicode="&#xe0;" horiz-adv-x="496" 
d="M204 -13q-72 0 -111.5 39t-39.5 117q0 85 54 126t177 41h41v39q0 21 -2 37.5t-9.5 28.5t-22 18t-38.5 6q-39 0 -76 -14t-70 -32l-33 66q38 23 83 39t105 16q74 0 111.5 -35t37.5 -116v-363h-67l-14 50q-22 -24 -53 -43.5t-73 -19.5zM215 55q37 0 64.5 20t45.5 40v133h-30
q-47 0 -76.5 -6t-46 -19t-22 -33t-5.5 -47q0 -50 16.5 -69t53.5 -19zM112 666l46 84l191 -133l-31 -53z" />
    <glyph glyph-name="aacute" unicode="&#xe1;" horiz-adv-x="496" 
d="M204 -13q-72 0 -111.5 39t-39.5 117q0 85 54 126t177 41h41v39q0 21 -2 37.5t-9.5 28.5t-22 18t-38.5 6q-39 0 -76 -14t-70 -32l-33 66q38 23 83 39t105 16q74 0 111.5 -35t37.5 -116v-363h-67l-14 50q-22 -24 -53 -43.5t-73 -19.5zM215 55q37 0 64.5 20t45.5 40v133h-30
q-47 0 -76.5 -6t-46 -19t-22 -33t-5.5 -47q0 -50 16.5 -69t53.5 -19zM135 617l191 133l46 -84l-206 -102z" />
    <glyph glyph-name="acircumflex" unicode="&#xe2;" horiz-adv-x="496" 
d="M204 -13q-72 0 -111.5 39t-39.5 117q0 85 54 126t177 41h41v39q0 21 -2 37.5t-9.5 28.5t-22 18t-38.5 6q-39 0 -76 -14t-70 -32l-33 66q38 23 83 39t105 16q74 0 111.5 -35t37.5 -116v-363h-67l-14 50q-22 -24 -53 -43.5t-73 -19.5zM215 55q37 0 64.5 20t45.5 40v133h-30
q-47 0 -76.5 -6t-46 -19t-22 -33t-5.5 -47q0 -50 16.5 -69t53.5 -19zM97 615l124 127h58l123 -127l-33 -45l-119 84l-120 -84z" />
    <glyph glyph-name="atilde" unicode="&#xe3;" horiz-adv-x="496" 
d="M204 -13q-72 0 -111.5 39t-39.5 117q0 85 54 126t177 41h41v39q0 21 -2 37.5t-9.5 28.5t-22 18t-38.5 6q-39 0 -76 -14t-70 -32l-33 66q38 23 83 39t105 16q74 0 111.5 -35t37.5 -116v-363h-67l-14 50q-22 -24 -53 -43.5t-73 -19.5zM215 55q37 0 64.5 20t45.5 40v133h-30
q-47 0 -76.5 -6t-46 -19t-22 -33t-5.5 -47q0 -50 16.5 -69t53.5 -19zM85 612q40 86 103 86q20 0 35 -6t28.5 -13t26.5 -13t28 -6q17 0 28 11.5t24 28.5l45 -33q-40 -86 -103 -86q-20 0 -35 6t-28.5 13t-26.5 13t-28 6q-17 0 -28 -11.5t-24 -28.5z" />
    <glyph glyph-name="adieresis" unicode="&#xe4;" horiz-adv-x="496" 
d="M204 -13q-72 0 -111.5 39t-39.5 117q0 85 54 126t177 41h41v39q0 21 -2 37.5t-9.5 28.5t-22 18t-38.5 6q-39 0 -76 -14t-70 -32l-33 66q38 23 83 39t105 16q74 0 111.5 -35t37.5 -116v-363h-67l-14 50q-22 -24 -53 -43.5t-73 -19.5zM215 55q37 0 64.5 20t45.5 40v133h-30
q-47 0 -76.5 -6t-46 -19t-22 -33t-5.5 -47q0 -50 16.5 -69t53.5 -19zM150 567q-23 0 -41 17.5t-18 42.5t18 42.5t41 17.5t41 -17.5t18 -42.5t-18 -42.5t-41 -17.5zM348 567q-23 0 -41 17.5t-18 42.5t18 42.5t41 17.5t41 -17.5t18 -42.5t-18 -42.5t-41 -17.5z" />
    <glyph glyph-name="aring" unicode="&#xe5;" horiz-adv-x="496" 
d="M204 -13q-72 0 -111.5 39t-39.5 117q0 85 54 126t177 41h41v39q0 21 -2 37.5t-9.5 28.5t-22 18t-38.5 6q-39 0 -76 -14t-70 -32l-33 66q38 23 83 39t105 16q74 0 111.5 -35t37.5 -116v-363h-67l-14 50q-22 -24 -53 -43.5t-73 -19.5zM215 55q37 0 64.5 20t45.5 40v133h-30
q-47 0 -76.5 -6t-46 -19t-22 -33t-5.5 -47q0 -50 16.5 -69t53.5 -19zM253 563q-23 0 -41.5 8.5t-31.5 23t-20 33.5t-7 40t7 40t20 33.5t31.5 23t41.5 8.5t41.5 -8.5t31.5 -23t20 -33.5t7 -40t-7 -40t-20 -33.5t-31.5 -23t-41.5 -8.5zM253 612q43 0 43 56t-43 56t-43 -56
t43 -56z" />
    <glyph glyph-name="ae" unicode="&#xe6;" horiz-adv-x="757" 
d="M204 -13q-72 0 -111.5 39.5t-39.5 113.5q0 82 54 122.5t177 40.5h41v46q0 21 -2 37.5t-9.5 28.5t-22 18t-38.5 6q-39 0 -76 -14t-70 -32l-33 66q38 23 83 39t105 16q44 0 73.5 -15t44.5 -48q47 63 135 63q45 0 79.5 -13.5t58.5 -43t36.5 -77t12.5 -115.5v-27h-291
q0 -54 6 -89t19.5 -55.5t35.5 -28.5t54 -8q41 0 68 12.5t53 32.5l44 -57q-37 -30 -74.5 -44t-92.5 -14q-58 0 -97 21t-64 66q-33 -43 -74 -65t-85 -22zM215 55q33 0 60 17.5t50 42.5v123h-30q-47 0 -76.5 -5.5t-46 -17.5t-22 -30.5t-5.5 -44.5q0 -48 16.5 -66.5t53.5 -18.5z
M513 446q-21 0 -38.5 -6.5t-30.5 -22.5t-21 -43.5t-11 -70.5h199q0 81 -22 112t-76 31z" />
    <glyph glyph-name="ccedilla" unicode="&#xe7;" horiz-adv-x="442" 
d="M218 -214q-22 0 -43 6.5t-36 17.5l22 46q14 -7 26.5 -11t29.5 -4q20 0 28.5 7.5t8.5 24.5q0 33 -36 33q-14 0 -24.5 -1.5t-18.5 -3.5l30 91q-74 14 -112.5 77.5t-38.5 181.5q0 72 14 122t39.5 81.5t62.5 45.5t84 14q43 0 76.5 -12.5t65.5 -44.5l-50 -60q-23 23 -43 33.5
t-52 10.5q-29 0 -48.5 -7.5t-32.5 -28.5t-18.5 -58t-5.5 -96q0 -58 6 -95t19.5 -58.5t35 -29.5t51.5 -8q31 0 51 13t41 33l53 -57q-27 -29 -61.5 -45t-83.5 -17l-14 -38q40 -3 56.5 -24.5t16.5 -56.5q0 -16 -5 -31t-16.5 -26t-30.5 -18t-47 -7z" />
    <glyph glyph-name="egrave" unicode="&#xe8;" horiz-adv-x="492" 
d="M259 -13q-98 0 -151.5 61.5t-53.5 202.5q0 71 14 121t39.5 81.5t62 46t80.5 14.5q45 0 79.5 -13.5t58.5 -43t36.5 -77t12.5 -115.5v-34h-291q1 -51 7.5 -84.5t20 -52.5t35 -26.5t52.5 -7.5q41 0 67 13.5t51 33.5l47 -62q-37 -30 -74.5 -44t-92.5 -14zM248 446
q-22 0 -39.5 -6.5t-30 -23.5t-20.5 -46t-11 -74h199q0 43 -5 72t-17 46t-30.5 24.5t-45.5 7.5zM127 666l46 84l191 -133l-31 -53z" />
    <glyph glyph-name="eacute" unicode="&#xe9;" horiz-adv-x="492" 
d="M259 -13q-98 0 -151.5 61.5t-53.5 202.5q0 71 14 121t39.5 81.5t62 46t80.5 14.5q45 0 79.5 -13.5t58.5 -43t36.5 -77t12.5 -115.5v-34h-291q1 -51 7.5 -84.5t20 -52.5t35 -26.5t52.5 -7.5q41 0 67 13.5t51 33.5l47 -62q-37 -30 -74.5 -44t-92.5 -14zM248 446
q-22 0 -39.5 -6.5t-30 -23.5t-20.5 -46t-11 -74h199q0 43 -5 72t-17 46t-30.5 24.5t-45.5 7.5zM142 617l191 133l46 -84l-206 -102z" />
    <glyph glyph-name="ecircumflex" unicode="&#xea;" horiz-adv-x="492" 
d="M259 -13q-98 0 -151.5 61.5t-53.5 202.5q0 71 14 121t39.5 81.5t62 46t80.5 14.5q45 0 79.5 -13.5t58.5 -43t36.5 -77t12.5 -115.5v-34h-291q1 -51 7.5 -84.5t20 -52.5t35 -26.5t52.5 -7.5q41 0 67 13.5t51 33.5l47 -62q-37 -30 -74.5 -44t-92.5 -14zM248 446
q-22 0 -39.5 -6.5t-30 -23.5t-20.5 -46t-11 -74h199q0 43 -5 72t-17 46t-30.5 24.5t-45.5 7.5zM97 615l124 127h58l123 -127l-33 -45l-119 84l-120 -84z" />
    <glyph glyph-name="edieresis" unicode="&#xeb;" horiz-adv-x="492" 
d="M259 -13q-98 0 -151.5 61.5t-53.5 202.5q0 71 14 121t39.5 81.5t62 46t80.5 14.5q45 0 79.5 -13.5t58.5 -43t36.5 -77t12.5 -115.5v-34h-291q1 -51 7.5 -84.5t20 -52.5t35 -26.5t52.5 -7.5q41 0 67 13.5t51 33.5l47 -62q-37 -30 -74.5 -44t-92.5 -14zM248 446
q-22 0 -39.5 -6.5t-30 -23.5t-20.5 -46t-11 -74h199q0 43 -5 72t-17 46t-30.5 24.5t-45.5 7.5zM151 567q-23 0 -41 17.5t-18 42.5t18 42.5t41 17.5t41 -17.5t18 -42.5t-18 -42.5t-41 -17.5zM349 567q-23 0 -41 17.5t-18 42.5t18 42.5t41 17.5t41 -17.5t18 -42.5t-18 -42.5
t-41 -17.5z" />
    <glyph glyph-name="igrave" unicode="&#xec;" horiz-adv-x="294" 
d="M116 434l-74 12v55h160v-501h-86v434zM-21 666l46 84l191 -133l-31 -53z" />
    <glyph glyph-name="iacute" unicode="&#xed;" horiz-adv-x="294" 
d="M116 434l-74 12v55h160v-501h-86v434zM82 617l191 133l46 -84l-206 -102z" />
    <glyph glyph-name="icircumflex" unicode="&#xee;" horiz-adv-x="294" 
d="M116 434l-74 12v55h160v-501h-86v434zM-13 615l124 127h58l123 -127l-33 -45l-119 84l-120 -84z" />
    <glyph glyph-name="idieresis" unicode="&#xef;" horiz-adv-x="294" 
d="M116 434l-74 12v55h160v-501h-86v434zM45 567q-23 0 -41 17.5t-18 42.5t18 42.5t41 17.5t41 -17.5t18 -42.5t-18 -42.5t-41 -17.5zM243 567q-23 0 -41 17.5t-18 42.5t18 42.5t41 17.5t41 -17.5t18 -42.5t-18 -42.5t-41 -17.5z" />
    <glyph glyph-name="eth" unicode="&#xf0;" horiz-adv-x="516" 
d="M128 589l86 39q-19 14 -39.5 27t-43.5 27l30 53q35 -17 66 -35.5t58 -38.5l105 47l28 -55l-81 -37q61 -61 93 -143t32 -198q0 -79 -14.5 -134t-41.5 -89t-64.5 -49.5t-83.5 -15.5t-83.5 15t-64.5 47t-42 82t-15 121q0 69 14.5 117t39.5 78t59.5 43.5t75.5 13.5
q36 0 61.5 -11t43.5 -30q-14 37 -34 66.5t-46 54.5l-111 -50zM258 55q28 0 49.5 9t35.5 31.5t21 60t7 95.5q0 53 -7 88.5t-21.5 57t-36 30.5t-49.5 9q-30 0 -51.5 -8t-35 -28.5t-19.5 -56t-6 -91.5q0 -58 7 -96t21 -60.5t35 -31.5t50 -9z" />
    <glyph glyph-name="ntilde" unicode="&#xf1;" horiz-adv-x="527" 
d="M88 501h67l13 -62q33 33 70.5 54t82.5 21q54 0 87.5 -29t33.5 -93v-392h-86v365q0 43 -13.5 58t-47.5 15q-30 0 -62 -18t-59 -42v-378h-86v501zM106 612q40 86 103 86q20 0 35 -6t28.5 -13t26.5 -13t28 -6q17 0 28 11.5t24 28.5l45 -33q-40 -86 -103 -86q-20 0 -35 6
t-28.5 13t-26.5 13t-28 6q-17 0 -28 -11.5t-24 -28.5z" />
    <glyph glyph-name="ograve" unicode="&#xf2;" horiz-adv-x="518" 
d="M259 -13q-46 0 -83.5 15t-64.5 46.5t-42 81.5t-15 121q0 70 14.5 120t41 82t64 46.5t83.5 14.5t84 -14.5t65 -46.5t42 -82t15 -120q0 -71 -14.5 -121t-41.5 -81.5t-64.5 -46.5t-83.5 -15zM259 55q28 0 49.5 9t35 31t20.5 59.5t7 95.5t-7 96t-21 60t-35.5 31t-49.5 9
q-29 0 -50 -8.5t-34.5 -30.5t-20.5 -60t-7 -96t7 -95.5t21 -60t35 -31.5t50 -9zM113 666l46 84l191 -133l-31 -53z" />
    <glyph glyph-name="oacute" unicode="&#xf3;" horiz-adv-x="518" 
d="M259 -13q-46 0 -83.5 15t-64.5 46.5t-42 81.5t-15 121q0 70 14.5 120t41 82t64 46.5t83.5 14.5t84 -14.5t65 -46.5t42 -82t15 -120q0 -71 -14.5 -121t-41.5 -81.5t-64.5 -46.5t-83.5 -15zM259 55q28 0 49.5 9t35 31t20.5 59.5t7 95.5t-7 96t-21 60t-35.5 31t-49.5 9
q-29 0 -50 -8.5t-34.5 -30.5t-20.5 -60t-7 -96t7 -95.5t21 -60t35 -31.5t50 -9zM166 617l191 133l46 -84l-206 -102z" />
    <glyph glyph-name="ocircumflex" unicode="&#xf4;" horiz-adv-x="518" 
d="M259 -13q-46 0 -83.5 15t-64.5 46.5t-42 81.5t-15 121q0 70 14.5 120t41 82t64 46.5t83.5 14.5t84 -14.5t65 -46.5t42 -82t15 -120q0 -71 -14.5 -121t-41.5 -81.5t-64.5 -46.5t-83.5 -15zM259 55q28 0 49.5 9t35 31t20.5 59.5t7 95.5t-7 96t-21 60t-35.5 31t-49.5 9
q-29 0 -50 -8.5t-34.5 -30.5t-20.5 -60t-7 -96t7 -95.5t21 -60t35 -31.5t50 -9zM105 615l124 127h58l123 -127l-33 -45l-119 84l-120 -84z" />
    <glyph glyph-name="otilde" unicode="&#xf5;" horiz-adv-x="518" 
d="M259 -13q-46 0 -83.5 15t-64.5 46.5t-42 81.5t-15 121q0 70 14.5 120t41 82t64 46.5t83.5 14.5t84 -14.5t65 -46.5t42 -82t15 -120q0 -71 -14.5 -121t-41.5 -81.5t-64.5 -46.5t-83.5 -15zM259 55q28 0 49.5 9t35 31t20.5 59.5t7 95.5t-7 96t-21 60t-35.5 31t-49.5 9
q-29 0 -50 -8.5t-34.5 -30.5t-20.5 -60t-7 -96t7 -95.5t21 -60t35 -31.5t50 -9zM101 612q40 86 103 86q20 0 35 -6t28.5 -13t26.5 -13t28 -6q17 0 28 11.5t24 28.5l45 -33q-40 -86 -103 -86q-20 0 -35 6t-28.5 13t-26.5 13t-28 6q-17 0 -28 -11.5t-24 -28.5z" />
    <glyph glyph-name="odieresis" unicode="&#xf6;" horiz-adv-x="518" 
d="M259 -13q-46 0 -83.5 15t-64.5 46.5t-42 81.5t-15 121q0 70 14.5 120t41 82t64 46.5t83.5 14.5t84 -14.5t65 -46.5t42 -82t15 -120q0 -71 -14.5 -121t-41.5 -81.5t-64.5 -46.5t-83.5 -15zM259 55q28 0 49.5 9t35 31t20.5 59.5t7 95.5t-7 96t-21 60t-35.5 31t-49.5 9
q-29 0 -50 -8.5t-34.5 -30.5t-20.5 -60t-7 -96t7 -95.5t21 -60t35 -31.5t50 -9zM158 567q-23 0 -41 17.5t-18 42.5t18 42.5t41 17.5t41 -17.5t18 -42.5t-18 -42.5t-41 -17.5zM357 567q-23 0 -41 17.5t-18 42.5t18 42.5t41 17.5t41 -17.5t18 -42.5t-18 -42.5t-41 -17.5z" />
    <glyph glyph-name="divide" unicode="&#xf7;" 
d="M274 435q-27 0 -46 19t-19 47t19 47t46 19q28 0 46.5 -19t18.5 -47t-18.5 -47t-46.5 -19zM73 356h402v-75h-402v75zM274 70q-27 0 -46 19t-19 47t19 47t46 19q28 0 46.5 -19t18.5 -47t-18.5 -47t-46.5 -19z" />
    <glyph glyph-name="oslash" unicode="&#xf8;" horiz-adv-x="518" 
d="M61 -44l51 91q-28 32 -43 82t-15 122q0 70 14.5 120t41 82t64 46.5t83.5 14.5q58 0 103 -24l48 86l48 -28l-52 -93q28 -32 43.5 -82t15.5 -122q0 -71 -14.5 -121t-41.5 -81.5t-64.5 -46.5t-83.5 -15q-59 0 -104 24l-46 -83zM259 55q28 0 49.5 9t35 31t20.5 59.5t7 95.5
q0 80 -13 122l-167 -297q26 -20 68 -20zM146 251q0 -77 12 -120l166 296q-13 11 -29.5 15t-36.5 4q-29 0 -50 -8.5t-34.5 -30.5t-20.5 -60t-7 -96z" />
    <glyph glyph-name="ugrave" unicode="&#xf9;" horiz-adv-x="530" 
d="M212 -13q-54 0 -91 31.5t-37 96.5v386h86v-359q0 -45 15.5 -62t49.5 -17q30 0 61 17.5t59 42.5v378h86v-501h-67l-13 62q-32 -32 -68 -53.5t-81 -21.5zM119 666l46 84l191 -133l-31 -53z" />
    <glyph glyph-name="uacute" unicode="&#xfa;" horiz-adv-x="530" 
d="M212 -13q-54 0 -91 31.5t-37 96.5v386h86v-359q0 -45 15.5 -62t49.5 -17q30 0 61 17.5t59 42.5v378h86v-501h-67l-13 62q-32 -32 -68 -53.5t-81 -21.5zM172 617l191 133l46 -84l-206 -102z" />
    <glyph glyph-name="ucircumflex" unicode="&#xfb;" horiz-adv-x="530" 
d="M212 -13q-54 0 -91 31.5t-37 96.5v386h86v-359q0 -45 15.5 -62t49.5 -17q30 0 61 17.5t59 42.5v378h86v-501h-67l-13 62q-32 -32 -68 -53.5t-81 -21.5zM111 615l124 127h58l123 -127l-33 -45l-119 84l-120 -84z" />
    <glyph glyph-name="udieresis" unicode="&#xfc;" horiz-adv-x="530" 
d="M212 -13q-54 0 -91 31.5t-37 96.5v386h86v-359q0 -45 15.5 -62t49.5 -17q30 0 61 17.5t59 42.5v378h86v-501h-67l-13 62q-32 -32 -68 -53.5t-81 -21.5zM164 567q-23 0 -41 17.5t-18 42.5t18 42.5t41 17.5t41 -17.5t18 -42.5t-18 -42.5t-41 -17.5zM363 567q-23 0 -41 17.5
t-18 42.5t18 42.5t41 17.5t41 -17.5t18 -42.5t-18 -42.5t-41 -17.5z" />
    <glyph glyph-name="yacute" unicode="&#xfd;" horiz-adv-x="478" 
d="M69 -137q30 8 51.5 17t37.5 24t27 38t22 58h-21l-156 501h94l84 -295q8 -30 16.5 -69t13.5 -68h1q5 27 12.5 63.5t18.5 73.5l89 295h89l-166 -517q-18 -56 -36 -89.5t-40.5 -53.5t-50.5 -30t-67 -18zM161 617l191 133l46 -84l-206 -102z" />
    <glyph glyph-name="thorn" unicode="&#xfe;" horiz-adv-x="540" 
d="M88 724h86v-275q27 29 60.5 47t73.5 18q36 0 67 -11.5t54.5 -41t36.5 -80t13 -127.5q0 -141 -42 -204t-130 -63q-42 0 -75.5 16.5t-57.5 39.5v-244h-86v925zM285 61q27 0 46 6.5t31.5 26.5t18.5 57t6 97t-5 97.5t-16.5 58.5t-29.5 28.5t-43 7.5q-37 0 -64.5 -16.5
t-54.5 -42.5v-271q22 -21 50.5 -35t60.5 -14z" />
    <glyph glyph-name="ydieresis" unicode="&#xff;" horiz-adv-x="478" 
d="M69 -137q30 8 51.5 17t37.5 24t27 38t22 58h-21l-156 501h94l84 -295q8 -30 16.5 -69t13.5 -68h1q5 27 12.5 63.5t18.5 73.5l89 295h89l-166 -517q-18 -56 -36 -89.5t-40.5 -53.5t-50.5 -30t-67 -18zM144 567q-23 0 -41 17.5t-18 42.5t18 42.5t41 17.5t41 -17.5t18 -42.5
t-18 -42.5t-41 -17.5zM342 567q-23 0 -41 17.5t-18 42.5t18 42.5t41 17.5t41 -17.5t18 -42.5t-18 -42.5t-41 -17.5z" />
    <glyph glyph-name="dotlessi" unicode="&#x131;" horiz-adv-x="294" 
d="M116 434l-74 12v55h160v-501h-86v434z" />
    <glyph glyph-name="IJ" unicode="&#x132;" horiz-adv-x="656" 
d="M65 51l70 8v571l-70 9v50h232v-50l-70 -9v-571l70 -8v-51h-232v51zM373 -85q21 12 38 23.5t29 28t18.5 43t6.5 68.5v611h93v-604q0 -56 -9 -92.5t-28 -61.5t-48.5 -42.5t-70.5 -34.5z" />
    <glyph glyph-name="ij" unicode="&#x133;" horiz-adv-x="588" 
d="M116 434l-74 12v55h160v-501h-86v434zM157 594q-26 0 -42.5 17.5t-16.5 43.5t17 44t43 18t43.5 -17.5t17.5 -44.5q0 -26 -17.5 -43.5t-44.5 -17.5zM335 -147q24 15 38.5 29.5t22.5 32t11 41t3 56.5v422l-74 12v55h160v-490q0 -52 -7 -86t-22 -57.5t-38.5 -40t-57.5 -33.5
zM451 594q-26 0 -42.5 17.5t-16.5 43.5t17 44t43 18t43.5 -17.5t17.5 -44.5q0 -26 -17.5 -43.5t-44.5 -17.5z" />
    <glyph glyph-name="Lslash" unicode="&#x141;" horiz-adv-x="471" 
d="M25 326l72 24v339h92v-308l147 50v-82l-147 -50v-219h235v-80h-327v268l-72 -24v82z" />
    <glyph glyph-name="lslash" unicode="&#x142;" horiz-adv-x="282" 
d="M28 366l67 30v328h86v-288l76 35v-82l-76 -35v-258q0 -35 35 -35q12 0 20 2l12 -62q-11 -5 -28.5 -8t-33.5 -3q-48 0 -69.5 28t-21.5 94v202l-67 -30v82z" />
    <glyph glyph-name="OE" unicode="&#x152;" horiz-adv-x="847" 
d="M339 0q-57 0 -107 17.5t-87 58.5t-58.5 107.5t-21.5 165.5q0 100 21 165.5t57.5 104.5t85.5 54.5t105 15.5h442v-79h-261v-210h211v-79h-211v-241h274v-80h-450zM423 80v530h-91q-44 0 -76 -13t-52.5 -44t-30 -81t-9.5 -125t9 -126t29 -82.5t51.5 -45t76.5 -13.5h93z" />
    <glyph glyph-name="oe" unicode="&#x153;" horiz-adv-x="809" 
d="M259 -13q-46 0 -83.5 15t-64.5 46.5t-42 81.5t-15 121q0 70 14.5 120t41 82t64 46.5t83.5 14.5q54 0 94.5 -22.5t64.5 -72.5q23 50 61 72.5t90 22.5q45 0 79.5 -13.5t58.5 -43t36.5 -77t12.5 -115.5v-34h-291q1 -52 7.5 -85.5t20 -53t35 -27.5t52.5 -8q41 0 68 12.5
t53 32.5l44 -57q-37 -30 -74.5 -44t-92.5 -14q-59 0 -98.5 22.5t-62.5 71.5q-23 -49 -62.5 -71.5t-93.5 -22.5zM259 55q28 0 49.5 9t35 31t20.5 59.5t7 95.5t-7 96t-21 60t-35.5 31t-49.5 9q-29 0 -50 -8.5t-34.5 -30.5t-20.5 -60t-7 -96t7 -95.5t21 -60t35 -31.5t50 -9z
M565 446q-22 0 -39.5 -6.5t-30 -23.5t-20.5 -46t-11 -74h199q0 43 -5 72t-17 46t-30.5 24.5t-45.5 7.5z" />
    <glyph glyph-name="Scaron" unicode="&#x160;" horiz-adv-x="530" 
d="M252 -13q-62 0 -116 19t-91 51l40 67q41 -31 75.5 -44.5t84.5 -13.5q69 0 97.5 29.5t28.5 83.5q0 31 -8.5 52.5t-25.5 37t-41.5 27t-55.5 23.5q-43 16 -74 34t-51.5 41.5t-30.5 55t-10 74.5q0 89 51.5 133.5t142.5 44.5q57 0 95 -12.5t71 -35.5l-38 -72q-30 21 -58 31
t-65 10q-50 0 -79 -22t-29 -74q0 -26 5.5 -44t18.5 -31.5t34 -24t52 -22.5q40 -15 75 -32t60.5 -42t40.5 -60t15 -87q0 -38 -10.5 -73.5t-35.5 -63t-66 -44t-102 -16.5zM105 871l33 45l119 -84l120 84l33 -45l-124 -127h-58z" />
    <glyph glyph-name="scaron" unicode="&#x161;" horiz-adv-x="434" 
d="M203 -13q-51 0 -95.5 16.5t-70.5 37.5l36 64q32 -22 64.5 -34t69.5 -12q51 0 70 19.5t19 54.5q0 21 -5.5 34.5t-17.5 23t-32.5 16.5t-50.5 15q-26 7 -49.5 18t-41 29t-27.5 44.5t-10 63.5q0 27 9 52t28 44t49 30t71 11q45 0 78 -8.5t61 -24.5l-30 -68q-32 16 -54.5 22
t-51.5 6q-79 0 -79 -62q0 -18 4.5 -29.5t15 -20t27.5 -15t43 -13.5q29 -8 55.5 -18.5t47 -29t32.5 -46.5t12 -70q0 -78 -44 -114t-133 -36zM74 697l33 45l119 -84l120 84l33 -45l-124 -127h-58z" />
    <glyph glyph-name="Ydieresis" unicode="&#x178;" horiz-adv-x="536" 
d="M221 278l-194 411h107l96 -223q25 -60 40 -108q9 25 17 51.5t21 55.5l100 224h100l-195 -413v-276h-92v278zM168 741q-23 0 -41 17.5t-18 42.5t18 42.5t41 17.5t41 -17.5t18 -42.5t-18 -42.5t-41 -17.5zM366 741q-23 0 -41 17.5t-18 42.5t18 42.5t41 17.5t41 -17.5
t18 -42.5t-18 -42.5t-41 -17.5z" />
    <glyph glyph-name="Zcaron" unicode="&#x17d;" horiz-adv-x="494" 
d="M43 70l292 539h-272v80h380v-73l-290 -536h289v-80h-399v70zM104 871l33 45l119 -84l120 84l33 -45l-124 -127h-58z" />
    <glyph glyph-name="zcaron" unicode="&#x17e;" horiz-adv-x="430" 
d="M49 79l236 352h-214v70h303v-78l-234 -353h242v-70h-333v79zM71 697l33 45l119 -84l120 84l33 -45l-124 -127h-58z" />
    <glyph glyph-name="longs" unicode="&#x17f;" horiz-adv-x="305" 
d="M90 581q0 43 10.5 71.5t28.5 46t42 24.5t52 7q29 0 55.5 -6.5t48.5 -20.5l-30 -65q-31 16 -62 16q-32 0 -45.5 -17t-13.5 -55v-582h-86v581z" />
    <glyph glyph-name="florin" unicode="&#x192;" 
d="M131 439h82l12 114q8 83 46 116t92 33q29 0 55 -6.5t48 -20.5l-30 -64q-16 8 -30 13.5t-31 5.5q-29 0 -44.5 -17.5t-19.5 -58.5l-12 -115h107v-70h-114l-58 -570h-86l58 570h-75v70z" />
    <glyph glyph-name="uni02BB" unicode="&#x2bb;" horiz-adv-x="259" 
d="M135 444q-32 0 -52 24t-20 65q0 27 6 52.5t19.5 47t36 38.5t56.5 27l17 -46q-24 -11 -42 -29t-18 -47q8 -1 18 -5t19 -12t15.5 -20.5t6.5 -29.5q0 -29 -18.5 -47t-43.5 -18z" />
    <glyph glyph-name="afii57929" unicode="&#x2bc;" horiz-adv-x="259" 
d="M61 490q24 11 42 29t18 47q-8 1 -18 5t-19 12t-15.5 20.5t-6.5 29.5q0 29 18.5 47t43.5 18q32 0 52 -24t20 -65q0 -27 -6 -52.5t-19.5 -47t-36 -38.5t-56.5 -27z" />
    <glyph glyph-name="circumflex" unicode="&#x2c6;" horiz-adv-x="545" 
d="M119 615l124 127h58l123 -127l-33 -45l-119 84l-120 -84z" />
    <glyph glyph-name="caron" unicode="&#x2c7;" horiz-adv-x="545" 
d="M121 697l33 45l119 -84l120 84l33 -45l-124 -127h-58z" />
    <glyph glyph-name="breve" unicode="&#x2d8;" horiz-adv-x="545" 
d="M272 579q-31 0 -55.5 11t-42.5 29t-29.5 41t-15.5 46l58 15q11 -31 29 -47.5t56 -16.5t56 16.5t29 47.5l58 -15q-5 -23 -16.5 -46t-29.5 -41t-42.5 -29t-54.5 -11z" />
    <glyph glyph-name="dotaccent" unicode="&#x2d9;" horiz-adv-x="545" 
d="M271 564q-26 0 -42.5 17.5t-16.5 43.5t17 44t43 18t43.5 -17.5t17.5 -44.5q0 -26 -17.5 -43.5t-44.5 -17.5z" />
    <glyph glyph-name="ring" unicode="&#x2da;" horiz-adv-x="545" 
d="M272 563q-23 0 -41.5 8.5t-31.5 23t-20 33.5t-7 40t7 40t20 33.5t31.5 23t41.5 8.5t41.5 -8.5t31.5 -23t20 -33.5t7 -40t-7 -40t-20 -33.5t-31.5 -23t-41.5 -8.5zM272 612q43 0 43 56t-43 56t-43 -56t43 -56z" />
    <glyph glyph-name="ogonek" unicode="&#x2db;" horiz-adv-x="545" 
d="M273 -214q-45 0 -67 24.5t-22 56.5q0 39 18 72.5t42 60.5l16 19h64l-14 -19q-28 -35 -45.5 -66.5t-17.5 -60.5q0 -32 32 -32q16 0 29 4.5t27 11.5l21 -47q-15 -10 -35.5 -17t-47.5 -7z" />
    <glyph glyph-name="tilde" unicode="&#x2dc;" horiz-adv-x="545" 
d="M115 612q40 86 103 86q20 0 35 -6t28.5 -13t26.5 -13t28 -6q17 0 28 11.5t24 28.5l45 -33q-40 -86 -103 -86q-20 0 -35 6t-28.5 13t-26.5 13t-28 6q-17 0 -28 -11.5t-24 -28.5z" />
    <glyph glyph-name="hungarumlaut" unicode="&#x2dd;" horiz-adv-x="545" 
d="M312 564l99 211l82 -50l-127 -191zM131 564l99 211l82 -50l-127 -191z" />
    <glyph glyph-name="gravecomb" unicode="&#x300;" horiz-adv-x="1" 
d="M-404 666l46 84l191 -133l-31 -53z" />
    <glyph glyph-name="acutecomb" unicode="&#x301;" horiz-adv-x="1" 
d="M-351 617l191 133l46 -84l-206 -102z" />
    <glyph glyph-name="uni0302" unicode="&#x302;" horiz-adv-x="1" 
d="M-412 615l124 127h58l123 -127l-33 -45l-119 84l-120 -84z" />
    <glyph glyph-name="tildecomb" unicode="&#x303;" horiz-adv-x="1" 
d="M-416 612q40 86 103 86q20 0 35 -6t28.5 -13t26.5 -13t28 -6q17 0 28 11.5t24 28.5l45 -33q-40 -86 -103 -86q-20 0 -35 6t-28.5 13t-26.5 13t-28 6q-17 0 -28 -11.5t-24 -28.5z" />
    <glyph glyph-name="uni0304" unicode="&#x304;" horiz-adv-x="1" 
d="M-401 692h257v-74h-257v74z" />
    <glyph glyph-name="uni0306" unicode="&#x306;" horiz-adv-x="1" 
d="M-272 570q-31 0 -55.5 11t-42.5 29t-29.5 41t-15.5 46l58 15q11 -31 29 -47.5t56 -16.5t56 16.5t29 47.5l58 -15q-5 -23 -16.5 -46t-29.5 -41t-42.5 -29t-54.5 -11z" />
    <glyph glyph-name="uni0307" unicode="&#x307;" horiz-adv-x="1" 
d="M-137 594q-26 0 -42.5 17.5t-16.5 43.5t17 44t43 18t43.5 -17.5t17.5 -44.5q0 -26 -17.5 -43.5t-44.5 -17.5z" />
    <glyph glyph-name="uni0308" unicode="&#x308;" horiz-adv-x="1" 
d="M-173 567q-23 0 -41 17.5t-18 42.5t18 42.5t41 17.5t41 -17.5t18 -42.5t-18 -42.5t-41 -17.5zM-372 567q-23 0 -41 17.5t-18 42.5t18 42.5t41 17.5t41 -17.5t18 -42.5t-18 -42.5t-41 -17.5z" />
    <glyph glyph-name="uni030A" unicode="&#x30a;" horiz-adv-x="1" 
d="M-272 563q-23 0 -41.5 8.5t-31.5 23t-20 33.5t-7 40t7 40t20 33.5t31.5 23t41.5 8.5t41.5 -8.5t31.5 -23t20 -33.5t7 -40t-7 -40t-20 -33.5t-31.5 -23t-41.5 -8.5zM-272 612q43 0 43 56t-43 56t-43 -56t43 -56z" />
    <glyph glyph-name="uni030B" unicode="&#x30b;" horiz-adv-x="1" 
d="M-232 594l99 211l82 -50l-127 -191zM-413 594l99 211l82 -50l-127 -191z" />
    <glyph glyph-name="uni030C" unicode="&#x30c;" horiz-adv-x="1" 
d="M-358 697l33 45l119 -84l120 84l33 -45l-124 -127h-58z" />
    <glyph glyph-name="uni0312" unicode="&#x312;" horiz-adv-x="1" 
d="M-52 723q-10 -3 -21.5 -8t-21 -12t-16 -14.5t-6.5 -15.5q6 -1 14.5 -4t15.5 -9t12 -16t5 -23q0 -24 -15.5 -39t-36.5 -15q-27 0 -44 18.5t-17 51.5q0 44 27 77.5t88 48.5z" />
    <glyph glyph-name="uni0326" unicode="&#x326;" horiz-adv-x="1" 
d="M-211 -198q10 3 21 8t21 12t16.5 14.5t6.5 15.5q-6 1 -14.5 4t-15.5 9t-12 15.5t-5 23.5q0 24 15.5 39t36.5 15q27 0 44 -18.5t17 -51.5q0 -44 -27 -77.5t-88 -48.5z" />
    <glyph glyph-name="uni0327" unicode="&#x327;" horiz-adv-x="1" 
d="M-272 -214q-22 0 -43 6.5t-36 17.5l22 46q14 -7 26.5 -11t29.5 -4q20 0 28.5 7.5t8.5 24.5q0 33 -36 33q-14 0 -24.5 -1.5t-18.5 -3.5l33 99l4 16h56l-5 -16l-19 -51q40 -3 56.5 -24.5t16.5 -56.5q0 -16 -5 -31t-16.5 -26t-30.5 -18t-47 -7z" />
    <glyph glyph-name="uni0328" unicode="&#x328;" horiz-adv-x="1" 
d="M-271 -214q-45 0 -67 24.5t-22 56.5q0 39 18 72.5t42 60.5l16 19h64l-14 -19q-28 -35 -45.5 -66.5t-17.5 -60.5q0 -32 32 -32q16 0 29 4.5t27 11.5l21 -47q-15 -10 -35.5 -17t-47.5 -7z" />
    <glyph glyph-name="uni0335" unicode="&#x335;" horiz-adv-x="1" 
d="M-401 287h257v-74h-257v74z" />
    <glyph glyph-name="uni0336" unicode="&#x336;" horiz-adv-x="1" 
d="M-725 288h670v-75h-670v75z" />
    <glyph glyph-name="uni037E" unicode="&#x37e;" horiz-adv-x="299" 
d="M81 -87q25 10 43.5 29.5t17.5 49.5q-8 1 -18.5 5t-20 12.5t-16 21t-6.5 30.5q0 30 19 49t45 19q32 0 53 -25t21 -68q0 -28 -6.5 -55t-20.5 -49.5t-37.5 -39.5t-57.5 -26zM149 298q-29 0 -48.5 20t-19.5 49t19.5 49t48.5 20t48.5 -20t19.5 -49t-19.5 -49t-48.5 -20z" />
    <glyph glyph-name="uni0394" unicode="&#x394;" horiz-adv-x="579" 
d="M241 690h102l207 -690h-522zM145 78h282l-89 319q-11 40 -18.5 68.5t-13 51t-9 41t-7.5 38.5h-2q-4 -21 -8 -39.5t-9.5 -41t-13 -51t-19.5 -67.5z" />
    <glyph glyph-name="uni03A9" unicode="&#x3a9;" horiz-adv-x="644" 
d="M354 77q31 13 54 33.5t38.5 54t23 82t7.5 116.5q0 131 -35.5 197.5t-122.5 66.5q-84 0 -119.5 -66t-35.5 -197q0 -69 7 -117.5t21.5 -82t36.5 -54.5t53 -33v-77h-202v77h68q9 0 20 -1q7 0 11 -1q-31 12 -52 36q-23 26 -36.5 63.5t-19 85.5t-5.5 102q0 83 17.5 146.5
t50.5 106t79.5 64.5t104.5 22q123 0 190.5 -86t67.5 -253q0 -53 -6.5 -100.5t-21.5 -85t-39 -64.5q-23 -25 -58 -37q7 2 16 2h90v-77h-203v77z" />
    <glyph glyph-name="uni03BC" unicode="&#x3bc;" horiz-adv-x="536" 
d="M450 -13q-35 0 -54 23t-22 58h-2q-18 -37 -46 -59t-70 -22q-26 0 -47 9.5t-34 22.5v-220h-87v702h87v-396q14 -23 38 -33.5t48 -10.5q26 0 44.5 12t30.5 31t17.5 43t5.5 48v306h86v-401q0 -29 7 -36.5t20 -7.5q10 0 20 2l11 -59q-12 -6 -25.5 -8.5t-27.5 -3.5z" />
    <glyph glyph-name="pi" unicode="&#x3c0;" horiz-adv-x="598" 
d="M142 431q-28 0 -54 -2t-49 -5v64q23 5 55.5 9t61.5 4h405v-70h-106q-1 -42 0.5 -99t6.5 -117.5t13.5 -117.5t22.5 -97h-94q-8 48 -13 97.5t-7.5 102t-4 110t-2.5 121.5h-153q-3 -107 -5 -217.5t-6 -213.5h-89q8 109 11 213.5t7 217.5z" />
    <glyph glyph-name="uni2007" unicode="&#x2007;" 
 />
    <glyph glyph-name="uni2008" unicode="&#x2008;" horiz-adv-x="277" 
 />
    <glyph glyph-name="uni200B" unicode="&#x200b;" horiz-adv-x="0" 
 />
    <glyph glyph-name="endash" unicode="&#x2013;" horiz-adv-x="567" 
d="M54 315h457v-75h-457v75z" />
    <glyph glyph-name="emdash" unicode="&#x2014;" horiz-adv-x="780" 
d="M54 315h670v-75h-670v75z" />
    <glyph glyph-name="quoteleft" unicode="&#x2018;" horiz-adv-x="259" 
d="M135 444q-32 0 -52 24t-20 65q0 27 6 52.5t19.5 47t36 38.5t56.5 27l17 -46q-24 -11 -42 -29t-18 -47q8 -1 18 -5t19 -12t15.5 -20.5t6.5 -29.5q0 -29 -18.5 -47t-43.5 -18z" />
    <glyph glyph-name="quoteright" unicode="&#x2019;" horiz-adv-x="259" 
d="M61 490q24 11 42 29t18 47q-8 1 -18 5t-19 12t-15.5 20.5t-6.5 29.5q0 29 18.5 47t43.5 18q32 0 52 -24t20 -65q0 -27 -6 -52.5t-19.5 -47t-36 -38.5t-56.5 -27z" />
    <glyph glyph-name="quotesinglbase" unicode="&#x201a;" horiz-adv-x="259" 
d="M61 -79q24 11 42 29t18 47q-8 1 -18 5t-19 12t-15.5 20.5t-6.5 29.5q0 29 18.5 47t43.5 18q32 0 52 -24t20 -65q0 -27 -6 -52.5t-19.5 -47t-36 -38.5t-56.5 -27z" />
    <glyph glyph-name="quotedblleft" unicode="&#x201c;" horiz-adv-x="456" 
d="M332 444q-32 0 -52 24t-20 65q0 27 6 52.5t19.5 47t36 38.5t56.5 27l17 -46q-24 -11 -42 -29t-18 -47q8 -1 18 -5t19 -12t15.5 -20.5t6.5 -29.5q0 -29 -18.5 -47t-43.5 -18zM135 444q-32 0 -52 24t-20 65q0 27 6 52.5t19.5 47t36 38.5t56.5 27l17 -46q-24 -11 -42 -29
t-18 -47q8 -1 18 -5t19 -12t15.5 -20.5t6.5 -29.5q0 -29 -18.5 -47t-43.5 -18z" />
    <glyph glyph-name="quotedblright" unicode="&#x201d;" horiz-adv-x="456" 
d="M258 490q24 11 42 29t18 47q-8 1 -18 5t-19 12t-15.5 20.5t-6.5 29.5q0 29 18.5 47t43.5 18q32 0 52 -24t20 -65q0 -27 -6 -52.5t-19.5 -47t-36 -38.5t-56.5 -27zM61 490q24 11 42 29t18 47q-8 1 -18 5t-19 12t-15.5 20.5t-6.5 29.5q0 29 18.5 47t43.5 18q32 0 52 -24
t20 -65q0 -27 -6 -52.5t-19.5 -47t-36 -38.5t-56.5 -27z" />
    <glyph glyph-name="quotedblbase" unicode="&#x201e;" horiz-adv-x="456" 
d="M258 -79q24 11 42 29t18 47q-8 1 -18 5t-19 12t-15.5 20.5t-6.5 29.5q0 29 18.5 47t43.5 18q32 0 52 -24t20 -65q0 -27 -6 -52.5t-19.5 -47t-36 -38.5t-56.5 -27zM61 -79q24 11 42 29t18 47q-8 1 -18 5t-19 12t-15.5 20.5t-6.5 29.5q0 29 18.5 47t43.5 18q32 0 52 -24
t20 -65q0 -27 -6 -52.5t-19.5 -47t-36 -38.5t-56.5 -27z" />
    <glyph glyph-name="dagger" unicode="&#x2020;" horiz-adv-x="383" 
d="M151 485h-100v73h100v131h80v-131h100v-73h-100v-291h-80v291z" />
    <glyph glyph-name="daggerdbl" unicode="&#x2021;" horiz-adv-x="383" 
d="M151 325h-100v73h100v87h-100v73h100v131h80v-131h100v-73h-100v-87h100v-73h-100v-131h-80v131z" />
    <glyph glyph-name="bullet" unicode="&#x2022;" horiz-adv-x="361" 
d="M180 214q-25 0 -45.5 9.5t-35.5 26t-23 38.5t-8 47t8 47t23 38.5t35.5 26t45.5 9.5t45.5 -9.5t35.5 -26t23 -38.5t8 -47t-8 -47t-23 -38.5t-35.5 -26t-45.5 -9.5z" />
    <glyph glyph-name="uni2023" unicode="&#x2023;" horiz-adv-x="562" 
d="M75 562l434 -228l-434 -230v458z" />
    <glyph glyph-name="ellipsis" unicode="&#x2026;" horiz-adv-x="723" 
d="M583 -9q-29 0 -48.5 20t-19.5 49t19.5 49t48.5 20t48.5 -20t19.5 -49t-19.5 -49t-48.5 -20zM361 -9q-29 0 -48.5 20t-19.5 49t19.5 49t48.5 20t48.5 -20t19.5 -49t-19.5 -49t-48.5 -20zM139 -9q-29 0 -48.5 20t-19.5 49t19.5 49t48.5 20t48.5 -20t19.5 -49t-19.5 -49
t-48.5 -20z" />
    <glyph glyph-name="perthousand" unicode="&#x2030;" horiz-adv-x="1202" 
d="M210 302q-35 0 -63 12.5t-48.5 35t-31.5 54.5t-11 71q0 79 42 125.5t111 46.5q34 0 62.5 -12.5t49 -35t31.5 -55t11 -71.5q0 -79 -42 -125t-111 -46zM626 -11q-35 0 -63 12.5t-48.5 35t-31.5 54.5t-11 71q0 79 42 125.5t111 46.5q34 0 62.5 -12.5t49 -35t31.5 -55
t11 -71.5q0 -79 -42 -125t-111 -46zM991 -11q-35 0 -63 12.5t-48.5 35t-31.5 54.5t-11 71q0 79 42 125.5t111 46.5q34 0 62.5 -12.5t49 -35t31.5 -55t11 -71.5q0 -79 -42 -125t-111 -46zM571 636h77l-384 -636h-77zM210 365q71 0 71 104q0 66 -17.5 90.5t-54.5 24.5
t-54 -25.5t-17 -79.5q0 -65 17.5 -89.5t54.5 -24.5zM991 52q71 0 71 104q0 66 -17.5 90.5t-54.5 24.5t-54 -25.5t-17 -79.5q0 -65 17.5 -89.5t54.5 -24.5zM626 52q71 0 71 104q0 66 -17.5 90.5t-54.5 24.5t-54 -25.5t-17 -79.5q0 -65 17.5 -89.5t54.5 -24.5z" />
    <glyph glyph-name="guilsinglleft" unicode="&#x2039;" horiz-adv-x="319" 
d="M56 248l139 222l65 -44l-110 -178l109 -179l-64 -42z" />
    <glyph glyph-name="guilsinglright" unicode="&#x203a;" horiz-adv-x="319" 
d="M58 71l110 178l-109 179l64 42l139 -221l-139 -222z" />
    <glyph glyph-name="fraction" unicode="&#x2044;" horiz-adv-x="310" 
d="M308 636h77l-384 -636h-77z" />
    <glyph glyph-name="uni2070" unicode="&#x2070;" horiz-adv-x="376" 
d="M188 213q-85 0 -124 54.5t-39 159.5q0 106 40.5 162.5t122.5 56.5q83 0 123 -56.5t40 -162.5t-39 -160t-124 -54zM188 267q50 0 69.5 39.5t19.5 122.5t-20.5 122.5t-68.5 39.5t-69 -40.5t-21 -122.5t20 -121.5t70 -39.5z" />
    <glyph glyph-name="uni2074" unicode="&#x2074;" horiz-adv-x="375" 
d="M21 278v63l129 296h73l-131 -300h150v173l71 12v-185h48v-59h-48v-95h-71v95h-221z" />
    <glyph glyph-name="uni2075" unicode="&#x2075;" horiz-adv-x="352" 
d="M143 176q-39 0 -68.5 8t-53.5 20l17 51q20 -9 43.5 -15t52.5 -6q51 0 73 24.5t22 69.5q0 47 -26 68t-73 21q-20 0 -41 -3t-39 -10l20 235h221v-58h-165l-11 -113q7 2 17.5 3t21.5 1q68 0 108.5 -35.5t40.5 -106.5q0 -72 -40 -113t-120 -41z" />
    <glyph glyph-name="uni2076" unicode="&#x2076;" horiz-adv-x="366" 
d="M107 466q17 13 41 24.5t57 11.5q25 0 49 -8t42 -25t29 -43t11 -62q0 -76 -40.5 -113.5t-106.5 -37.5q-72 0 -116 48t-44 146q0 125 61.5 191t178.5 86l16 -53q-40 -10 -70.5 -22.5t-52.5 -31.5t-35.5 -46t-19.5 -65zM103 416q-1 -5 -1 -11v-12q0 -67 23 -97t64 -30
q76 0 76 93q0 47 -21 69t-59 22q-26 0 -45.5 -10t-36.5 -24z" />
    <glyph glyph-name="uni2077" unicode="&#x2077;" horiz-adv-x="337" 
d="M81 185q6 71 22 130.5t37.5 108.5t47 88t52.5 68h-208v59h273v-63q-24 -27 -49 -66t-46.5 -89.5t-37 -112t-19.5 -133.5z" />
    <glyph glyph-name="uni2078" unicode="&#x2078;" horiz-adv-x="372" 
d="M122 452q-35 16 -55 43t-20 67q0 51 35 84t103 33q66 0 102 -31t36 -82q0 -38 -22.5 -65t-55.5 -41q43 -20 69 -45.5t26 -75.5q0 -63 -41.5 -94.5t-114.5 -31.5q-72 0 -112.5 31.5t-40.5 93.5q0 45 25.5 71.5t65.5 42.5zM174 429q-36 -15 -55 -35.5t-19 -53.5
q0 -38 23 -57t63 -19q39 0 61.5 19t22.5 54q0 28 -15 47t-54 34zM190 481q38 15 51.5 35t13.5 46q0 32 -18.5 48.5t-51.5 16.5q-32 0 -50.5 -16t-18.5 -47q0 -27 13 -45t45 -32z" />
    <glyph glyph-name="uni2079" unicode="&#x2079;" horiz-adv-x="366" 
d="M258 389q-16 -14 -40 -25t-54 -11q-26 0 -50 8.5t-43 26t-30 44t-11 62.5q0 76 41.5 114t106.5 38q72 0 115.5 -47.5t43.5 -147.5q0 -125 -63.5 -191t-181.5 -86l-16 52q40 10 71.5 23t54 32t36.5 45t20 63zM263 464q0 68 -22 98.5t-63 30.5q-37 0 -57.5 -23.5
t-20.5 -69.5q0 -48 23 -72t61 -24q24 0 44 9.5t35 23.5v27z" />
    <glyph glyph-name="uni207A" unicode="&#x207a;" horiz-adv-x="347" 
d="M140 381h-101v62h101v113h67v-113h101v-62h-101v-111h-67v111z" />
    <glyph glyph-name="uni207B" unicode="&#x207b;" horiz-adv-x="347" 
d="M39 443h269v-62h-269v62z" />
    <glyph glyph-name="uni207C" unicode="&#x207c;" horiz-adv-x="350" 
d="M39 506h271v-62h-271v62zM39 379h271v-62h-271v62z" />
    <glyph glyph-name="uni207D" unicode="&#x207d;" horiz-adv-x="218" 
d="M181 114q-39 16 -67 41.5t-46 62.5t-26.5 87t-8.5 116t8 116t26 87.5t46 62.5t68 41l19 -48q-25 -15 -42.5 -34t-29 -48.5t-17 -72.5t-5.5 -105t5.5 -105t17.5 -72t29.5 -48t41.5 -33z" />
    <glyph glyph-name="uni207E" unicode="&#x207e;" horiz-adv-x="218" 
d="M18 162q24 15 42 34t29.5 48.5t17 72t5.5 104.5q0 63 -5.5 106t-17.5 72t-29.5 48t-41.5 33l19 48q39 -16 66.5 -41t45.5 -62t26.5 -87.5t8.5 -116.5q0 -131 -34 -203.5t-113 -103.5z" />
    <glyph glyph-name="uni2080" unicode="&#x2080;" horiz-adv-x="376" 
d="M188 -156q-85 0 -124 54.5t-39 159.5q0 106 40.5 162.5t122.5 56.5q83 0 123 -56.5t40 -162.5t-39 -160t-124 -54zM188 -102q50 0 69.5 39.5t19.5 122.5t-20.5 122.5t-68.5 39.5t-69 -40.5t-21 -122.5t20 -121.5t70 -39.5z" />
    <glyph glyph-name="uni2081" unicode="&#x2081;" horiz-adv-x="327" 
d="M58 -98h82v287l-76 -39l-20 38l114 87h55v-373h76v-52h-231v52z" />
    <glyph glyph-name="uni2082" unicode="&#x2082;" horiz-adv-x="361" 
d="M52 -90q58 46 94 80t56 60.5t27.5 48.5t7.5 45q0 38 -19 55t-52 17q-28 0 -48 -6.5t-46 -20.5l-23 52q25 14 54 24.5t70 10.5q63 0 100.5 -32.5t37.5 -95.5q0 -29 -8.5 -55.5t-29 -55t-54.5 -60.5t-85 -70h183v-57h-265v60z" />
    <glyph glyph-name="uni2083" unicode="&#x2083;" horiz-adv-x="366" 
d="M155 -194q-42 0 -73 8t-55 19l16 52q22 -8 47 -14.5t56 -6.5q95 0 95 83q0 46 -25 63.5t-65 17.5h-40v53h36q81 0 81 70q0 67 -75 67q-28 0 -50 -7t-42 -18l-20 50q26 15 55 24t69 9q63 0 98.5 -32t35.5 -84q0 -42 -19.5 -66.5t-51.5 -36.5q39 -10 63 -38t24 -77
q0 -62 -40.5 -99t-119.5 -37z" />
    <glyph glyph-name="uni2084" unicode="&#x2084;" horiz-adv-x="375" 
d="M21 -91v63l129 296h73l-131 -300h150v173l71 12v-185h48v-59h-48v-95h-71v95h-221z" />
    <glyph glyph-name="uni2085" unicode="&#x2085;" horiz-adv-x="352" 
d="M143 -193q-39 0 -68.5 8t-53.5 20l17 51q20 -9 43.5 -15t52.5 -6q51 0 73 24.5t22 69.5q0 47 -26 68t-73 21q-20 0 -41 -3t-39 -10l20 235h221v-58h-165l-11 -113q7 2 17.5 3t21.5 1q68 0 108.5 -35.5t40.5 -106.5q0 -72 -40 -113t-120 -41z" />
    <glyph glyph-name="uni2086" unicode="&#x2086;" horiz-adv-x="366" 
d="M107 97q17 13 41 24.5t57 11.5q25 0 49 -8t42 -25t29 -43t11 -62q0 -76 -40.5 -113.5t-106.5 -37.5q-72 0 -116 48t-44 146q0 125 61.5 191t178.5 86l16 -53q-40 -10 -70.5 -22.5t-52.5 -31.5t-35.5 -46t-19.5 -65zM103 47q-1 -5 -1 -11v-12q0 -67 23 -97t64 -30
q76 0 76 93q0 47 -21 69t-59 22q-26 0 -45.5 -10t-36.5 -24z" />
    <glyph glyph-name="uni2087" unicode="&#x2087;" horiz-adv-x="337" 
d="M81 -184q6 71 22 130.5t37.5 108.5t47 88t52.5 68h-208v59h273v-63q-24 -27 -49 -66t-46.5 -89.5t-37 -112t-19.5 -133.5z" />
    <glyph glyph-name="uni2088" unicode="&#x2088;" horiz-adv-x="372" 
d="M122 83q-35 16 -55 43t-20 67q0 51 35 84t103 33q66 0 102 -31t36 -82q0 -38 -22.5 -65t-55.5 -41q43 -20 69 -45.5t26 -75.5q0 -63 -41.5 -94.5t-114.5 -31.5q-72 0 -112.5 31.5t-40.5 93.5q0 45 25.5 71.5t65.5 42.5zM174 60q-36 -15 -55 -35.5t-19 -53.5q0 -38 23 -57
t63 -19q39 0 61.5 19t22.5 54q0 28 -15 47t-54 34zM190 112q38 15 51.5 35t13.5 46q0 32 -18.5 48.5t-51.5 16.5q-32 0 -50.5 -16t-18.5 -47q0 -27 13 -45t45 -32z" />
    <glyph glyph-name="uni2089" unicode="&#x2089;" horiz-adv-x="366" 
d="M258 20q-16 -14 -40 -25t-54 -11q-26 0 -50 8.5t-43 26t-30 44t-11 62.5q0 76 41.5 114t106.5 38q72 0 115.5 -47.5t43.5 -147.5q0 -125 -63.5 -191t-181.5 -86l-16 52q40 10 71.5 23t54 32t36.5 45t20 63zM263 95q0 68 -22 98.5t-63 30.5q-37 0 -57.5 -23.5t-20.5 -69.5
q0 -48 23 -72t61 -24q24 0 44 9.5t35 23.5v27z" />
    <glyph glyph-name="uni208A" unicode="&#x208a;" horiz-adv-x="347" 
d="M140 12h-101v62h101v113h67v-113h101v-62h-101v-111h-67v111z" />
    <glyph glyph-name="uni208B" unicode="&#x208b;" horiz-adv-x="347" 
d="M39 74h269v-62h-269v62z" />
    <glyph glyph-name="uni208C" unicode="&#x208c;" horiz-adv-x="350" 
d="M39 137h271v-62h-271v62zM39 10h271v-62h-271v62z" />
    <glyph glyph-name="uni208D" unicode="&#x208d;" horiz-adv-x="218" 
d="M181 -255q-39 16 -67 41.5t-46 62.5t-26.5 87t-8.5 116t8 116t26 87.5t46 62.5t68 41l19 -48q-25 -15 -42.5 -34t-29 -48.5t-17 -72.5t-5.5 -105t5.5 -105t17.5 -72t29.5 -48t41.5 -33z" />
    <glyph glyph-name="uni208E" unicode="&#x208e;" horiz-adv-x="218" 
d="M18 -207q24 15 42 34t29.5 48.5t17 72t5.5 104.5q0 63 -5.5 106t-17.5 72t-29.5 48t-41.5 33l19 48q39 -16 66.5 -41t45.5 -62t26.5 -87.5t8.5 -116.5q0 -131 -34 -203.5t-113 -103.5z" />
    <glyph glyph-name="Euro" unicode="&#x20ac;" 
d="M39 389v66h70q34 247 247 247q48 0 88.5 -13t69.5 -37l-41 -61q-24 18 -53 28t-64 10q-71 0 -108 -39t-47 -135h210v-66h-214q-1 -10 -1 -21v-43q0 -10 1 -20h214v-66h-211q5 -50 16 -84.5t30.5 -55.5t47 -30t65.5 -9t69 12.5t55 32.5l41 -61q-32 -25 -74.5 -41
t-93.5 -16q-109 0 -170 61.5t-78 190.5h-69v66h64q-1 9 -1 18v43q0 12 1 23h-64z" />
    <glyph glyph-name="uni20B4" unicode="&#x20b4;" 
d="M181 305l86 84h-233v66h298q26 27 40.5 50.5t14.5 53.5q0 32 -21.5 51t-77.5 19q-45 0 -84.5 -12t-70.5 -30l-30 69q35 21 84 33.5t106 12.5q93 0 135 -37.5t42 -96.5q0 -36 -11 -62t-33 -51h90v-66h-155l-84 -84h239v-66h-307q-20 -22 -32 -45t-12 -50q0 -41 33.5 -62.5
t94.5 -21.5q51 0 89 14t79 44l39 -64q-35 -29 -91.5 -48t-118.5 -19q-109 0 -160 39t-51 106q0 29 11 55t30 52h-86v66h147z" />
    <glyph glyph-name="afii61352" unicode="&#x2116;" horiz-adv-x="981" 
d="M98 689h93l192 -392q23 -46 39.5 -90.5t27.5 -79.5h2q-4 35 -7.5 87.5t-3.5 108.5v366h85v-689h-96l-176 360q-17 34 -28.5 61t-20.5 49.5t-16 42t-13 38.5h-2q4 -37 6.5 -91.5t2.5 -114.5v-345h-85v689zM622 251h316v-80h-316v80zM780 323q-35 0 -64 13t-50 37.5
t-32.5 59t-11.5 76.5q0 85 43 134.5t114 49.5q35 0 64 -13.5t50 -37.5t32.5 -58.5t11.5 -76.5q0 -85 -43 -134.5t-114 -49.5zM780 391q37 0 55 27t18 84q0 71 -18.5 97.5t-55.5 26.5q-73 0 -73 -113q0 -70 18 -96t56 -26z" />
    <glyph glyph-name="trademark" unicode="&#x2122;" horiz-adv-x="784" 
d="M376 689h101l48 -160q10 -33 13.5 -57t3.5 -30h2q0 5 3.5 29t13.5 58l47 160h99v-380h-68v178q0 45 2 83.5t4 54.5h-2q-2 -11 -9 -48t-21 -82l-39 -126h-65l-39 126q-7 21 -12.5 42.5t-9 39t-6 30.5t-3.5 18h-2q0 -3 1.5 -16.5t2.5 -33t2 -43t1 -45.5v-178h-68v380z
M148 627h-97v62h265v-62h-97v-318h-71v318z" />
    <glyph glyph-name="Omega" unicode="&#x2126;" horiz-adv-x="644" 
d="M354 77q31 13 54 33.5t38.5 54t23 82t7.5 116.5q0 131 -35.5 197.5t-122.5 66.5q-84 0 -119.5 -66t-35.5 -197q0 -69 7 -117.5t21.5 -82t36.5 -54.5t53 -33v-77h-202v77h68q9 0 20 -1q7 0 11 -1q-31 12 -52 36q-23 26 -36.5 63.5t-19 85.5t-5.5 102q0 83 17.5 146.5
t50.5 106t79.5 64.5t104.5 22q123 0 190.5 -86t67.5 -253q0 -53 -6.5 -100.5t-21.5 -85t-39 -64.5q-23 -25 -58 -37q7 2 16 2h90v-77h-203v77z" />
    <glyph glyph-name="uni2150" unicode="&#x2150;" horiz-adv-x="974" 
d="M58 271h82v287l-76 -39l-20 38l114 87h55v-373h76v-52h-231v52zM635 636h77l-384 -636h-77zM718 -34q6 71 22 130.5t37.5 108.5t47 88t52.5 68h-208v59h273v-63q-24 -27 -49 -66t-46.5 -89.5t-37 -112t-19.5 -133.5z" />
    <glyph glyph-name="uni2151" unicode="&#x2151;" horiz-adv-x="1003" 
d="M58 271h82v287l-76 -39l-20 38l114 87h55v-373h76v-52h-231v52zM635 636h77l-384 -636h-77zM895 170q-16 -14 -40 -25t-54 -11q-26 0 -50 8.5t-43 26t-30 44t-11 62.5q0 76 41.5 114t106.5 38q72 0 115.5 -47.5t43.5 -147.5q0 -125 -63.5 -191t-181.5 -86l-16 52
q40 10 71.5 23t54 32t36.5 45t20 63zM900 245q0 68 -22 98.5t-63 30.5q-37 0 -57.5 -23.5t-20.5 -69.5q0 -48 23 -72t61 -24q24 0 44 9.5t35 23.5v27z" />
    <glyph glyph-name="uni2152" unicode="&#x2152;" horiz-adv-x="1340" 
d="M58 271h82v287l-76 -39l-20 38l114 87h55v-373h76v-52h-231v52zM635 636h77l-384 -636h-77zM695 52h82v287l-76 -39l-20 38l114 87h55v-373h76v-52h-231v52zM1152 -6q-85 0 -124 54.5t-39 159.5q0 106 40.5 162.5t122.5 56.5q83 0 123 -56.5t40 -162.5t-39 -160t-124 -54
zM1152 48q50 0 69.5 39.5t19.5 122.5t-20.5 122.5t-68.5 39.5t-69 -40.5t-21 -122.5t20 -121.5t70 -39.5z" />
    <glyph glyph-name="onethird" unicode="&#x2153;" horiz-adv-x="1003" 
d="M58 271h82v287l-76 -39l-20 38l114 87h55v-373h76v-52h-231v52zM635 636h77l-384 -636h-77zM792 -44q-42 0 -73 8t-55 19l16 52q22 -8 47 -14.5t56 -6.5q95 0 95 83q0 46 -25 63.5t-65 17.5h-40v53h36q81 0 81 70q0 67 -75 67q-28 0 -50 -7t-42 -18l-20 50q26 15 55 24
t69 9q63 0 98.5 -32t35.5 -84q0 -42 -19.5 -66.5t-51.5 -36.5q39 -10 63 -38t24 -77q0 -62 -40.5 -99t-119.5 -37z" />
    <glyph glyph-name="twothirds" unicode="&#x2154;" horiz-adv-x="1037" 
d="M52 279q58 46 94 80t56 60.5t27.5 48.5t7.5 45q0 38 -19 55t-52 17q-28 0 -48 -6.5t-46 -20.5l-23 52q25 14 54 24.5t70 10.5q63 0 100.5 -32.5t37.5 -95.5q0 -29 -8.5 -55.5t-29 -55t-54.5 -60.5t-85 -70h183v-57h-265v60zM669 636h77l-384 -636h-77zM826 -44
q-42 0 -73 8t-55 19l16 52q22 -8 47 -14.5t56 -6.5q95 0 95 83q0 46 -25 63.5t-65 17.5h-40v53h36q81 0 81 70q0 67 -75 67q-28 0 -50 -7t-42 -18l-20 50q26 15 55 24t69 9q63 0 98.5 -32t35.5 -84q0 -42 -19.5 -66.5t-51.5 -36.5q39 -10 63 -38t24 -77q0 -62 -40.5 -99
t-119.5 -37z" />
    <glyph glyph-name="uni2155" unicode="&#x2155;" horiz-adv-x="989" 
d="M58 271h82v287l-76 -39l-20 38l114 87h55v-373h76v-52h-231v52zM635 636h77l-384 -636h-77zM780 -43q-39 0 -68.5 8t-53.5 20l17 51q20 -9 43.5 -15t52.5 -6q51 0 73 24.5t22 69.5q0 47 -26 68t-73 21q-20 0 -41 -3t-39 -10l20 235h221v-58h-165l-11 -113q7 2 17.5 3
t21.5 1q68 0 108.5 -35.5t40.5 -106.5q0 -72 -40 -113t-120 -41z" />
    <glyph glyph-name="uni2156" unicode="&#x2156;" horiz-adv-x="1023" 
d="M52 279q58 46 94 80t56 60.5t27.5 48.5t7.5 45q0 38 -19 55t-52 17q-28 0 -48 -6.5t-46 -20.5l-23 52q25 14 54 24.5t70 10.5q63 0 100.5 -32.5t37.5 -95.5q0 -29 -8.5 -55.5t-29 -55t-54.5 -60.5t-85 -70h183v-57h-265v60zM669 636h77l-384 -636h-77zM814 -43
q-39 0 -68.5 8t-53.5 20l17 51q20 -9 43.5 -15t52.5 -6q51 0 73 24.5t22 69.5q0 47 -26 68t-73 21q-20 0 -41 -3t-39 -10l20 235h221v-58h-165l-11 -113q7 2 17.5 3t21.5 1q68 0 108.5 -35.5t40.5 -106.5q0 -72 -40 -113t-120 -41z" />
    <glyph glyph-name="uni2157" unicode="&#x2157;" horiz-adv-x="1028" 
d="M155 175q-42 0 -73 8t-55 19l16 52q22 -8 47 -14.5t56 -6.5q95 0 95 83q0 46 -25 63.5t-65 17.5h-40v53h36q81 0 81 70q0 67 -75 67q-28 0 -50 -7t-42 -18l-20 50q26 15 55 24t69 9q63 0 98.5 -32t35.5 -84q0 -42 -19.5 -66.5t-51.5 -36.5q39 -10 63 -38t24 -77
q0 -62 -40.5 -99t-119.5 -37zM674 636h77l-384 -636h-77zM819 -43q-39 0 -68.5 8t-53.5 20l17 51q20 -9 43.5 -15t52.5 -6q51 0 73 24.5t22 69.5q0 47 -26 68t-73 21q-20 0 -41 -3t-39 -10l20 235h221v-58h-165l-11 -113q7 2 17.5 3t21.5 1q68 0 108.5 -35.5t40.5 -106.5
q0 -72 -40 -113t-120 -41z" />
    <glyph glyph-name="uni2158" unicode="&#x2158;" horiz-adv-x="1037" 
d="M21 278v63l129 296h73l-131 -300h150v173l71 12v-185h48v-59h-48v-95h-71v95h-221zM683 636h77l-384 -636h-77zM828 -43q-39 0 -68.5 8t-53.5 20l17 51q20 -9 43.5 -15t52.5 -6q51 0 73 24.5t22 69.5q0 47 -26 68t-73 21q-20 0 -41 -3t-39 -10l20 235h221v-58h-165
l-11 -113q7 2 17.5 3t21.5 1q68 0 108.5 -35.5t40.5 -106.5q0 -72 -40 -113t-120 -41z" />
    <glyph glyph-name="uni2159" unicode="&#x2159;" horiz-adv-x="1003" 
d="M58 271h82v287l-76 -39l-20 38l114 87h55v-373h76v-52h-231v52zM635 636h77l-384 -636h-77zM744 247q17 13 41 24.5t57 11.5q25 0 49 -8t42 -25t29 -43t11 -62q0 -76 -40.5 -113.5t-106.5 -37.5q-72 0 -116 48t-44 146q0 125 61.5 191t178.5 86l16 -53
q-40 -10 -70.5 -22.5t-52.5 -31.5t-35.5 -46t-19.5 -65zM740 197q-1 -5 -1 -11v-12q0 -67 23 -97t64 -30q76 0 76 93q0 47 -21 69t-59 22q-26 0 -45.5 -10t-36.5 -24z" />
    <glyph glyph-name="uni215A" unicode="&#x215a;" horiz-adv-x="1028" 
d="M143 176q-39 0 -68.5 8t-53.5 20l17 51q20 -9 43.5 -15t52.5 -6q51 0 73 24.5t22 69.5q0 47 -26 68t-73 21q-20 0 -41 -3t-39 -10l20 235h221v-58h-165l-11 -113q7 2 17.5 3t21.5 1q68 0 108.5 -35.5t40.5 -106.5q0 -72 -40 -113t-120 -41zM660 636h77l-384 -636h-77z
M769 247q17 13 41 24.5t57 11.5q25 0 49 -8t42 -25t29 -43t11 -62q0 -76 -40.5 -113.5t-106.5 -37.5q-72 0 -116 48t-44 146q0 125 61.5 191t178.5 86l16 -53q-40 -10 -70.5 -22.5t-52.5 -31.5t-35.5 -46t-19.5 -65zM765 197q-1 -5 -1 -11v-12q0 -67 23 -97t64 -30
q76 0 76 93q0 47 -21 69t-59 22q-26 0 -45.5 -10t-36.5 -24z" />
    <glyph glyph-name="oneeighth" unicode="&#x215b;" horiz-adv-x="1009" 
d="M58 271h82v287l-76 -39l-20 38l114 87h55v-373h76v-52h-231v52zM635 636h77l-384 -636h-77zM759 233q-35 16 -55 43t-20 67q0 51 35 84t103 33q66 0 102 -31t36 -82q0 -38 -22.5 -65t-55.5 -41q43 -20 69 -45.5t26 -75.5q0 -63 -41.5 -94.5t-114.5 -31.5
q-72 0 -112.5 31.5t-40.5 93.5q0 45 25.5 71.5t65.5 42.5zM811 210q-36 -15 -55 -35.5t-19 -53.5q0 -38 23 -57t63 -19q39 0 61.5 19t22.5 54q0 28 -15 47t-54 34zM827 262q38 15 51.5 35t13.5 46q0 32 -18.5 48.5t-51.5 16.5q-32 0 -50.5 -16t-18.5 -47q0 -27 13 -45
t45 -32z" />
    <glyph glyph-name="threeeighths" unicode="&#x215c;" horiz-adv-x="1048" 
d="M155 175q-42 0 -73 8t-55 19l16 52q22 -8 47 -14.5t56 -6.5q95 0 95 83q0 46 -25 63.5t-65 17.5h-40v53h36q81 0 81 70q0 67 -75 67q-28 0 -50 -7t-42 -18l-20 50q26 15 55 24t69 9q63 0 98.5 -32t35.5 -84q0 -42 -19.5 -66.5t-51.5 -36.5q39 -10 63 -38t24 -77
q0 -62 -40.5 -99t-119.5 -37zM674 636h77l-384 -636h-77zM798 233q-35 16 -55 43t-20 67q0 51 35 84t103 33q66 0 102 -31t36 -82q0 -38 -22.5 -65t-55.5 -41q43 -20 69 -45.5t26 -75.5q0 -63 -41.5 -94.5t-114.5 -31.5q-72 0 -112.5 31.5t-40.5 93.5q0 45 25.5 71.5
t65.5 42.5zM850 210q-36 -15 -55 -35.5t-19 -53.5q0 -38 23 -57t63 -19q39 0 61.5 19t22.5 54q0 28 -15 47t-54 34zM866 262q38 15 51.5 35t13.5 46q0 32 -18.5 48.5t-51.5 16.5q-32 0 -50.5 -16t-18.5 -47q0 -27 13 -45t45 -32z" />
    <glyph glyph-name="fiveeighths" unicode="&#x215d;" horiz-adv-x="1034" 
d="M143 176q-39 0 -68.5 8t-53.5 20l17 51q20 -9 43.5 -15t52.5 -6q51 0 73 24.5t22 69.5q0 47 -26 68t-73 21q-20 0 -41 -3t-39 -10l20 235h221v-58h-165l-11 -113q7 2 17.5 3t21.5 1q68 0 108.5 -35.5t40.5 -106.5q0 -72 -40 -113t-120 -41zM660 636h77l-384 -636h-77z
M784 233q-35 16 -55 43t-20 67q0 51 35 84t103 33q66 0 102 -31t36 -82q0 -38 -22.5 -65t-55.5 -41q43 -20 69 -45.5t26 -75.5q0 -63 -41.5 -94.5t-114.5 -31.5q-72 0 -112.5 31.5t-40.5 93.5q0 45 25.5 71.5t65.5 42.5zM836 210q-36 -15 -55 -35.5t-19 -53.5q0 -38 23 -57
t63 -19q39 0 61.5 19t22.5 54q0 28 -15 47t-54 34zM852 262q38 15 51.5 35t13.5 46q0 32 -18.5 48.5t-51.5 16.5q-32 0 -50.5 -16t-18.5 -47q0 -27 13 -45t45 -32z" />
    <glyph glyph-name="seveneighths" unicode="&#x215e;" horiz-adv-x="949" 
d="M81 185q6 71 22 130.5t37.5 108.5t47 88t52.5 68h-208v59h273v-63q-24 -27 -49 -66t-46.5 -89.5t-37 -112t-19.5 -133.5zM575 636h77l-384 -636h-77zM699 233q-35 16 -55 43t-20 67q0 51 35 84t103 33q66 0 102 -31t36 -82q0 -38 -22.5 -65t-55.5 -41q43 -20 69 -45.5
t26 -75.5q0 -63 -41.5 -94.5t-114.5 -31.5q-72 0 -112.5 31.5t-40.5 93.5q0 45 25.5 71.5t65.5 42.5zM751 210q-36 -15 -55 -35.5t-19 -53.5q0 -38 23 -57t63 -19q39 0 61.5 19t22.5 54q0 28 -15 47t-54 34zM767 262q38 15 51.5 35t13.5 46q0 32 -18.5 48.5t-51.5 16.5
q-32 0 -50.5 -16t-18.5 -47q0 -27 13 -45t45 -32z" />
    <glyph glyph-name="uni215F" unicode="&#x215f;" horiz-adv-x="637" 
d="M58 271h82v287l-76 -39l-20 38l114 87h55v-373h76v-52h-231v52zM635 636h77l-384 -636h-77z" />
    <glyph glyph-name="uni2189" unicode="&#x2189;" horiz-adv-x="1052" 
d="M188 213q-85 0 -124 54.5t-39 159.5q0 106 40.5 162.5t122.5 56.5q83 0 123 -56.5t40 -162.5t-39 -160t-124 -54zM188 267q50 0 69.5 39.5t19.5 122.5t-20.5 122.5t-68.5 39.5t-69 -40.5t-21 -122.5t20 -121.5t70 -39.5zM684 636h77l-384 -636h-77zM841 -44q-42 0 -73 8
t-55 19l16 52q22 -8 47 -14.5t56 -6.5q95 0 95 83q0 46 -25 63.5t-65 17.5h-40v53h36q81 0 81 70q0 67 -75 67q-28 0 -50 -7t-42 -18l-20 50q26 15 55 24t69 9q63 0 98.5 -32t35.5 -84q0 -42 -19.5 -66.5t-51.5 -36.5q39 -10 63 -38t24 -77q0 -62 -40.5 -99t-119.5 -37z" />
    <glyph glyph-name="arrowleft" unicode="&#x2190;" horiz-adv-x="730" 
d="M675 378v-76h-473l246 -268l-50 -54l-347 359l347 359l50 -54l-245 -266h472z" />
    <glyph glyph-name="arrowup" unicode="&#x2191;" horiz-adv-x="768" 
d="M77 288l-52 52l359 346l359 -346l-54 -53l-264 240v-527h-80v528z" />
    <glyph glyph-name="arrowright" unicode="&#x2192;" horiz-adv-x="730" 
d="M523 378l-245 266l50 54l347 -359l-347 -359l-50 54l246 268h-473v76h472z" />
    <glyph glyph-name="arrowdown" unicode="&#x2193;" horiz-adv-x="768" 
d="M345 158v528h80v-527l264 240l54 -53l-359 -346l-359 346l52 52z" />
    <glyph glyph-name="uni2196" unicode="&#x2196;" horiz-adv-x="730" 
d="M187 73h-76l9 522l523 10v-71l-388 -15l373 -372l-57 -57l-367 368z" />
    <glyph glyph-name="uni2197" unicode="&#x2197;" horiz-adv-x="730" 
d="M526 458l-367 -368l-57 57l373 372l-388 15v71l523 -10l9 -522h-76z" />
    <glyph glyph-name="uni2198" unicode="&#x2198;" horiz-adv-x="730" 
d="M543 607h76l-9 -522l-523 -10v71l388 15l-373 372l57 57l367 -368z" />
    <glyph glyph-name="uni2199" unicode="&#x2199;" horiz-adv-x="730" 
d="M204 222l367 368l57 -57l-373 -372l388 -15v-71l-523 10l-9 522h76z" />
    <glyph glyph-name="uni21B0" unicode="&#x21b0;" horiz-adv-x="826" 
d="M206 380h539v-380h-74v304h-466l207 -225l-51 -55l-306 319l306 319l50 -53z" />
    <glyph glyph-name="uni21B1" unicode="&#x21b1;" horiz-adv-x="826" 
d="M419 609l50 53l306 -319l-306 -319l-51 55l207 225h-466v-304h-74v380h539z" />
    <glyph glyph-name="uni21B2" unicode="&#x21b2;" horiz-adv-x="768" 
d="M186 380h441v288h74v-364h-516l207 -225l-51 -55l-306 319l306 319l50 -53z" />
    <glyph glyph-name="uni21B3" unicode="&#x21b3;" horiz-adv-x="768" 
d="M365 609l50 53l306 -319l-306 -319l-51 55l207 225h-516v364h74v-288h441z" />
    <glyph glyph-name="uni21B4" unicode="&#x21b4;" horiz-adv-x="768" 
d="M345 158v429h-292v76h372v-504l224 200l54 -53l-319 -306l-319 306l52 52z" />
    <glyph glyph-name="carriagereturn" unicode="&#x21b5;" horiz-adv-x="768" 
d="M186 380h441v288h74v-364h-516l207 -225l-51 -55l-306 319l306 319l50 -53z" />
    <glyph glyph-name="uni21E0" unicode="&#x21e0;" horiz-adv-x="778" 
d="M279 546q-23 0 -39.5 16.5t-16.5 39.5t16.5 39.5t39.5 16.5t39.5 -16.5t16.5 -39.5t-16.5 -39.5t-39.5 -16.5zM279 26q-23 0 -39.5 16.5t-16.5 39.5t16.5 39.5t39.5 16.5t39.5 -16.5t16.5 -39.5t-16.5 -39.5t-39.5 -16.5zM189 151q-23 0 -39.5 16.5t-16.5 39.5t16.5 39.5
t39.5 16.5t39.5 -16.5t16.5 -39.5t-16.5 -39.5t-39.5 -16.5zM89 286q-23 0 -39.5 16.5t-16.5 39.5t16.5 39.5t39.5 16.5t39.5 -16.5t16.5 -39.5t-16.5 -39.5t-39.5 -16.5zM239 286q-23 0 -39.5 16.5t-16.5 39.5t16.5 39.5t39.5 16.5t39.5 -16.5t16.5 -39.5t-16.5 -39.5
t-39.5 -16.5zM389 286q-23 0 -39.5 16.5t-16.5 39.5t16.5 39.5t39.5 16.5t39.5 -16.5t16.5 -39.5t-16.5 -39.5t-39.5 -16.5zM539 286q-23 0 -39.5 16.5t-16.5 39.5t16.5 39.5t39.5 16.5t39.5 -16.5t16.5 -39.5t-16.5 -39.5t-39.5 -16.5zM689 286q-23 0 -39.5 16.5
t-16.5 39.5t16.5 39.5t39.5 16.5t39.5 -16.5t16.5 -39.5t-16.5 -39.5t-39.5 -16.5zM189 421q-23 0 -39.5 16.5t-16.5 39.5t16.5 39.5t39.5 16.5t39.5 -16.5t16.5 -39.5t-16.5 -39.5t-39.5 -16.5z" />
    <glyph glyph-name="uni21E1" unicode="&#x21e1;" horiz-adv-x="778" 
d="M333 642q0 23 16.5 39.5t39.5 16.5t39.5 -16.5t16.5 -39.5t-16.5 -39.5t-39.5 -16.5t-39.5 16.5t-16.5 39.5zM333 42q0 23 16.5 39.5t39.5 16.5t39.5 -16.5t16.5 -39.5t-16.5 -39.5t-39.5 -16.5t-39.5 16.5t-16.5 39.5zM333 192q0 23 16.5 39.5t39.5 16.5t39.5 -16.5
t16.5 -39.5t-16.5 -39.5t-39.5 -16.5t-39.5 16.5t-16.5 39.5zM333 342q0 23 16.5 39.5t39.5 16.5t39.5 -16.5t16.5 -39.5t-16.5 -39.5t-39.5 -16.5t-39.5 16.5t-16.5 39.5zM83 442q0 23 16.5 39.5t39.5 16.5t39.5 -16.5t16.5 -39.5t-16.5 -39.5t-39.5 -16.5t-39.5 16.5
t-16.5 39.5zM583 442q0 23 16.5 39.5t39.5 16.5t39.5 -16.5t16.5 -39.5t-16.5 -39.5t-39.5 -16.5t-39.5 16.5t-16.5 39.5zM333 492q0 23 16.5 39.5t39.5 16.5t39.5 -16.5t16.5 -39.5t-16.5 -39.5t-39.5 -16.5t-39.5 16.5t-16.5 39.5zM198 542q0 23 16.5 39.5t39.5 16.5
t39.5 -16.5t16.5 -39.5t-16.5 -39.5t-39.5 -16.5t-39.5 16.5t-16.5 39.5zM468 542q0 23 16.5 39.5t39.5 16.5t39.5 -16.5t16.5 -39.5t-16.5 -39.5t-39.5 -16.5t-39.5 16.5t-16.5 39.5z" />
    <glyph glyph-name="uni21E2" unicode="&#x21e2;" horiz-adv-x="778" 
d="M499 658q23 0 39.5 -16.5t16.5 -39.5t-16.5 -39.5t-39.5 -16.5t-39.5 16.5t-16.5 39.5t16.5 39.5t39.5 16.5zM499 138q23 0 39.5 -16.5t16.5 -39.5t-16.5 -39.5t-39.5 -16.5t-39.5 16.5t-16.5 39.5t16.5 39.5t39.5 16.5zM589 263q23 0 39.5 -16.5t16.5 -39.5t-16.5 -39.5
t-39.5 -16.5t-39.5 16.5t-16.5 39.5t16.5 39.5t39.5 16.5zM89 398q23 0 39.5 -16.5t16.5 -39.5t-16.5 -39.5t-39.5 -16.5t-39.5 16.5t-16.5 39.5t16.5 39.5t39.5 16.5zM239 398q23 0 39.5 -16.5t16.5 -39.5t-16.5 -39.5t-39.5 -16.5t-39.5 16.5t-16.5 39.5t16.5 39.5
t39.5 16.5zM389 398q23 0 39.5 -16.5t16.5 -39.5t-16.5 -39.5t-39.5 -16.5t-39.5 16.5t-16.5 39.5t16.5 39.5t39.5 16.5zM539 398q23 0 39.5 -16.5t16.5 -39.5t-16.5 -39.5t-39.5 -16.5t-39.5 16.5t-16.5 39.5t16.5 39.5t39.5 16.5zM689 398q23 0 39.5 -16.5t16.5 -39.5
t-16.5 -39.5t-39.5 -16.5t-39.5 16.5t-16.5 39.5t16.5 39.5t39.5 16.5zM589 533q23 0 39.5 -16.5t16.5 -39.5t-16.5 -39.5t-39.5 -16.5t-39.5 16.5t-16.5 39.5t16.5 39.5t39.5 16.5z" />
    <glyph glyph-name="uni21E3" unicode="&#x21e3;" horiz-adv-x="778" 
d="M445 642q0 -23 -16.5 -39.5t-39.5 -16.5t-39.5 16.5t-16.5 39.5t16.5 39.5t39.5 16.5t39.5 -16.5t16.5 -39.5zM445 42q0 -23 -16.5 -39.5t-39.5 -16.5t-39.5 16.5t-16.5 39.5t16.5 39.5t39.5 16.5t39.5 -16.5t16.5 -39.5zM310 142q0 -23 -16.5 -39.5t-39.5 -16.5
t-39.5 16.5t-16.5 39.5t16.5 39.5t39.5 16.5t39.5 -16.5t16.5 -39.5zM580 142q0 -23 -16.5 -39.5t-39.5 -16.5t-39.5 16.5t-16.5 39.5t16.5 39.5t39.5 16.5t39.5 -16.5t16.5 -39.5zM445 192q0 -23 -16.5 -39.5t-39.5 -16.5t-39.5 16.5t-16.5 39.5t16.5 39.5t39.5 16.5
t39.5 -16.5t16.5 -39.5zM195 242q0 -23 -16.5 -39.5t-39.5 -16.5t-39.5 16.5t-16.5 39.5t16.5 39.5t39.5 16.5t39.5 -16.5t16.5 -39.5zM695 242q0 -23 -16.5 -39.5t-39.5 -16.5t-39.5 16.5t-16.5 39.5t16.5 39.5t39.5 16.5t39.5 -16.5t16.5 -39.5zM445 342
q0 -23 -16.5 -39.5t-39.5 -16.5t-39.5 16.5t-16.5 39.5t16.5 39.5t39.5 16.5t39.5 -16.5t16.5 -39.5zM445 492q0 -23 -16.5 -39.5t-39.5 -16.5t-39.5 16.5t-16.5 39.5t16.5 39.5t39.5 16.5t39.5 -16.5t16.5 -39.5z" />
    <glyph glyph-name="partialdiff" unicode="&#x2202;" horiz-adv-x="518" 
d="M240 514q41 0 69.5 -14t47.5 -36q-13 45 -35 81t-50.5 67t-64 58t-75.5 53l30 52q72 -35 128.5 -80t94.5 -105t58 -138t20 -178q0 -79 -14.5 -134t-41.5 -89t-64.5 -49t-83.5 -15t-83.5 15t-64.5 46.5t-42 81.5t-15 121q0 70 14 120t39 82t59 46.5t74 14.5zM259 55
q28 0 49.5 9t35 31t20.5 59.5t7 95.5t-7 96t-21 60t-35.5 31t-49.5 9q-30 0 -51.5 -8.5t-35 -30.5t-19.5 -60t-6 -96t7 -95.5t21 -60t35 -31.5t50 -9z" />
    <glyph glyph-name="Delta" unicode="&#x2206;" horiz-adv-x="579" 
d="M241 690h102l207 -690h-522zM145 78h282l-89 319q-11 40 -18.5 68.5t-13 51t-9 41t-7.5 38.5h-2q-4 -21 -8 -39.5t-9.5 -41t-13 -51t-19.5 -67.5z" />
    <glyph glyph-name="product" unicode="&#x220f;" horiz-adv-x="633" 
d="M129 609h-89v80h552v-80h-89v-820h-92v820h-190v-820h-92v820z" />
    <glyph glyph-name="summation" unicode="&#x2211;" horiz-adv-x="517" 
d="M65 -127l189 371l-189 373v72h385v-79h-274l182 -363l-197 -378h298v-80h-394v84z" />
    <glyph glyph-name="minus" unicode="&#x2212;" 
d="M73 360h402v-83h-402v83z" />
    <glyph glyph-name="uni2219" unicode="&#x2219;" 
d="M274 214q-25 0 -45.5 9.5t-35.5 26t-23 38.5t-8 47t8 47t23 38.5t35.5 26t45.5 9.5t45.5 -9.5t35.5 -26t23 -38.5t8 -47t-8 -47t-23 -38.5t-35.5 -26t-45.5 -9.5z" />
    <glyph glyph-name="radical" unicode="&#x221a;" horiz-adv-x="555" 
d="M111 295h-65v78h129l34 -89q10 -28 18.5 -50t15 -41t12 -36t10.5 -34h2q4 17 9 34t10 36.5t11.5 41.5t14.5 50l117 404h93l-205 -689h-90z" />
    <glyph glyph-name="infinity" unicode="&#x221e;" horiz-adv-x="622" 
d="M171 90q-25 0 -47.5 10.5t-40 31t-27.5 51t-10 71.5q0 92 36.5 132t92.5 40q22 0 41 -8.5t35.5 -23t31 -33t28.5 -39.5q14 21 29 39.5t32 33t36.5 23t41.5 8.5q25 0 47.5 -10.5t40 -31t27.5 -51.5t10 -71q0 -46 -10 -78.5t-27 -53.5t-40.5 -30.5t-51.5 -9.5
q-22 0 -40.5 8.5t-35 23t-31.5 33t-28 39.5q-14 -21 -29.5 -39.5t-32.5 -33t-36.5 -23t-41.5 -8.5zM175 166q26 0 49.5 27t46.5 65q-23 38 -46 65t-50 27q-25 0 -36.5 -25t-11.5 -70q0 -89 48 -89zM446 166q25 0 36.5 25t11.5 70q0 89 -48 89q-26 0 -49 -27.5t-47 -65.5
q23 -38 46 -64.5t50 -26.5z" />
    <glyph glyph-name="integral" unicode="&#x222b;" horiz-adv-x="309" 
d="M62 -211q-29 0 -55.5 6.5t-48.5 20.5l30 67q16 -8 30.5 -13.5t31.5 -5.5q32 0 45.5 18t13.5 56v615q0 43 11 71.5t29.5 46t43.5 24.5t53 7q29 0 55.5 -6.5t48.5 -20.5l-30 -67q-16 8 -30.5 13.5t-31.5 5.5q-32 0 -45.5 -18t-13.5 -56v-615q0 -43 -11 -71.5t-30 -46
t-43.5 -24.5t-52.5 -7z" />
    <glyph glyph-name="approxequal" unicode="&#x2248;" horiz-adv-x="545" 
d="M74 358q23 51 55 77t71 26q23 0 42.5 -7t37.5 -15t35 -15t34 -7q21 0 36 16.5t29 36.5l56 -33q-47 -103 -126 -103q-23 0 -43 7t-38 15t-34.5 15t-33.5 7q-21 0 -36 -16.5t-29 -36.5zM74 172q23 51 55 77t71 26q23 0 42.5 -7t37.5 -15t35 -15t34 -7q21 0 36 16.5t29 36.5
l56 -33q-47 -103 -126 -103q-23 0 -43 7t-38 15t-34.5 15t-33.5 7q-21 0 -36 -16.5t-29 -36.5z" />
    <glyph glyph-name="notequal" unicode="&#x2260;" horiz-adv-x="551" 
d="M74 430h213l55 140l70 -25l-45 -115h109v-75h-138l-49 -125h187v-75h-216l-54 -140l-69 26l44 114h-107v75h136l48 125h-184v75z" />
    <glyph glyph-name="lessequal" unicode="&#x2264;" horiz-adv-x="398" 
d="M57 306v52l247 155l35 -63l-191 -118l191 -118l-35 -63zM63 105h282v-75h-282v75z" />
    <glyph glyph-name="greaterequal" unicode="&#x2265;" horiz-adv-x="398" 
d="M58 214l191 118l-191 118l35 63l247 -155v-52l-247 -155zM52 105h282v-75h-282v75z" />
    <glyph glyph-name="dotmath" unicode="&#x22c5;" 
d="M274 265q-29 0 -48.5 20t-19.5 49t19.5 49t48.5 20t48.5 -20t19.5 -49t-19.5 -49t-48.5 -20z" />
    <glyph glyph-name="triagup" unicode="&#x25b2;" horiz-adv-x="562" 
d="M52 116l230 434l228 -434h-458z" />
    <glyph glyph-name="uni25B3" unicode="&#x25b3;" horiz-adv-x="562" 
d="M52 116l228 434h2l228 -434h-458zM159 181h244l-122 243z" />
    <glyph glyph-name="uni25B4" unicode="&#x25b4;" horiz-adv-x="542" 
d="M72 56l198 414h2l198 -414h-398z" />
    <glyph glyph-name="uni25B5" unicode="&#x25b5;" horiz-adv-x="542" 
d="M72 56l198 414h2l198 -414h-398zM167 123h208l-104 217z" />
    <glyph glyph-name="uni25B6" unicode="&#x25b6;" horiz-adv-x="562" 
d="M75 562l434 -228l-434 -230v458z" />
    <glyph glyph-name="uni25B7" unicode="&#x25b7;" horiz-adv-x="562" 
d="M75 562l434 -228v-2l-434 -228v458zM383 333l-243 122v-244z" />
    <glyph glyph-name="uni25B8" unicode="&#x25b8;" horiz-adv-x="542" 
d="M75 462l414 -198v-2l-414 -198v398z" />
    <glyph glyph-name="uni25B9" unicode="&#x25b9;" horiz-adv-x="542" 
d="M75 462l414 -198v-2l-414 -198v398zM142 367v-208l217 104z" />
    <glyph glyph-name="triagdn" unicode="&#x25bc;" horiz-adv-x="562" 
d="M510 550l-228 -434l-230 434h458z" />
    <glyph glyph-name="uni25BD" unicode="&#x25bd;" horiz-adv-x="562" 
d="M510 550l-228 -434h-2l-228 434h458zM281 242l122 243h-244z" />
    <glyph glyph-name="uni25BE" unicode="&#x25be;" horiz-adv-x="542" 
d="M470 490l-198 -414h-2l-198 414h398z" />
    <glyph glyph-name="uni25BF" unicode="&#x25bf;" horiz-adv-x="542" 
d="M470 490l-198 -414h-2l-198 414h398zM271 206l104 217h-208z" />
    <glyph glyph-name="uni25C0" unicode="&#x25c0;" horiz-adv-x="562" 
d="M487 104l-434 228v2l434 228v-458z" />
    <glyph glyph-name="uni25C1" unicode="&#x25c1;" horiz-adv-x="562" 
d="M487 104l-434 228v2l434 228v-458zM179 333l243 -122v244z" />
    <glyph glyph-name="uni25C2" unicode="&#x25c2;" horiz-adv-x="542" 
d="M467 64l-414 198v2l414 198v-398z" />
    <glyph glyph-name="uni25C3" unicode="&#x25c3;" horiz-adv-x="542" 
d="M467 64l-414 198v2l414 198v-398zM183 263l217 -104v208z" />
    <glyph glyph-name="lozenge" unicode="&#x25ca;" horiz-adv-x="582" 
d="M51 345l199 344h76l204 -345l-199 -344h-76zM294 74q3 9 12.5 32t24.5 51l104 191l-110 190q-15 26 -25 51t-12 32h-1q-2 -7 -12 -32.5t-24 -50.5l-105 -191l108 -190q17 -30 27 -53.5t12 -29.5h1z" />
    <glyph glyph-name="uni25FB" unicode="&#x25fb;" horiz-adv-x="498" 
d="M423 502v-358h-348v358h348z" />
    <glyph glyph-name="uni25FC" unicode="&#x25fc;" horiz-adv-x="498" 
d="M423 502v-358h-348v358h348zM360 203v240h-222v-240h222z" />
    <glyph glyph-name="uni25FD" unicode="&#x25fd;" horiz-adv-x="457" 
d="M382 432v-318h-307v318h307zM319 173v200h-181v-200h181z" />
    <glyph glyph-name="uni25FE" unicode="&#x25fe;" horiz-adv-x="457" 
d="M382 432v-318h-307v318h307z" />
    <glyph glyph-name="uniFB05" unicode="&#xfb05;" horiz-adv-x="594" 
d="M176 0h-86v533q0 97 48 147t132 50q83 0 128.5 -37.5t45.5 -106.5v-85h103v-70h-103v-329q0 -46 41 -46q17 0 30 4.5t25 9.5l17 -64q-17 -8 -36.5 -13.5t-42.5 -5.5q-51 0 -85.5 23.5t-34.5 83.5v337h-57v70h57v87q0 42 -21.5 58.5t-66.5 16.5q-54 0 -74 -35.5
t-20 -104.5v-523z" />
    <glyph glyph-name="uniFB06" unicode="&#xfb06;" horiz-adv-x="766" 
d="M203 -13q-51 0 -95.5 16.5t-70.5 37.5l36 64q32 -22 64.5 -34t69.5 -12q51 0 70 19.5t19 54.5q0 21 -5.5 34.5t-17.5 23t-32.5 16.5t-50.5 15q-26 7 -49.5 18t-41 29t-27.5 44.5t-10 63.5q0 27 9 52t28 44t49 30t71 11q11 0 20 -1t17 -3q-15 18 -21.5 37t-6.5 45
q0 12 7 34t25.5 43.5t51 37.5t82.5 16q39 0 78.5 -10t71.5 -34t52 -64.5t20 -101.5v-12h103v-70h-103v-329q0 -46 41 -46q17 0 30 4.5t25 9.5l17 -64q-17 -8 -36.5 -13.5t-42.5 -5.5q-51 0 -85.5 23.5t-34.5 83.5v337h-57v70h57q0 52 -13.5 84.5t-33.5 50t-44 23.5t-45 6
q-35 0 -55.5 -9.5t-31.5 -23t-14 -27.5t-3 -23q0 -23 5.5 -39t14.5 -28.5t21 -21.5t25 -17l-28 -63q-32 16 -54.5 22t-51.5 6q-79 0 -79 -62q0 -18 4.5 -29.5t15 -20t27.5 -15t43 -13.5q29 -8 55.5 -18.5t47 -29t32.5 -46.5t12 -70q0 -78 -44 -114t-133 -36z" />
    <glyph glyph-name="uniFEFF" unicode="&#xfeff;" horiz-adv-x="0" 
 />
    <glyph glyph-name="uniFFFD" unicode="&#xfffd;" horiz-adv-x="718" 
d="M377 255q1 18 2 27.5t4 16t9.5 13.5t20.5 20q29 26 39 43.5t10 38.5q0 36 -28 62t-76 26q-45 0 -71.5 -23.5t-31.5 -68.5l40 -5q5 33 22 49t42 16q26 0 44.5 -17.5t18.5 -40.5q0 -14 -7 -24q-5 -8 -27 -29q-10 -9 -17 -15.5t-11 -11.5q-11 -14 -15 -26q-7 -15 -7 -40
q0 -6 1 -11h38zM377 177v45h-45v-45h45zM359 704l354 -354l-354 -354l-354 354z" />
    <glyph glyph-name="three.osf" horiz-adv-x="516" 
d="M212 -66q-45 0 -89.5 8t-79.5 21l16 71q35 -8 73.5 -15t75.5 -7q80 0 114 32t34 110q0 38 -9 62.5t-28 39t-47.5 20t-68.5 5.5h-37v71h48q70 0 97.5 29t27.5 89q0 50 -25.5 75.5t-82.5 25.5q-38 0 -77 -10t-75 -29l-30 65q46 26 92 39t101 13q45 0 80 -13t59.5 -35.5
t37.5 -53.5t13 -67q0 -25 -5 -49t-16 -45t-29.5 -38.5t-46.5 -29.5q58 -17 88.5 -63.5t30.5 -104.5q0 -50 -13.5 -90t-43 -68t-75.5 -43t-110 -15z" />
    <glyph glyph-name="two.osf" horiz-adv-x="503" 
d="M50 82q93 79 149.5 134t88 97t42 76t10.5 72q0 59 -27 85.5t-80 26.5q-48 0 -84 -14t-67 -34l-34 63q46 30 91.5 45.5t100.5 15.5q40 0 75.5 -10.5t62 -33t41.5 -57.5t15 -84q0 -45 -13 -85.5t-45 -85t-86.5 -96.5t-137.5 -120h293v-77h-395v82z" />
    <glyph glyph-name="one.osf" horiz-adv-x="456" 
d="M75 74h128v451l-126 -60l-26 47l174 131h68v-569h112v-74h-330v74z" />
    <glyph glyph-name="zero.osf" horiz-adv-x="620" 
d="M311 -12q-119 0 -184 81t-65 247q0 164 65.5 248.5t181.5 84.5q119 0 183.5 -81.5t64.5 -246.5q0 -168 -63 -250.5t-183 -82.5zM310 59q82 0 116.5 61t34.5 195q0 135 -34.5 198t-116.5 63t-117 -61.5t-35 -194.5q0 -135 35 -198t117 -63z" />
    <glyph glyph-name="four.osf" horiz-adv-x="570" 
d="M51 185l200 451h94l-207 -459h219v265l90 17v-282h75v-77h-75v-153h-90v153h-306v85z" />
    <glyph glyph-name="five.osf" horiz-adv-x="517" 
d="M193 -66q-47 0 -82.5 8.5t-67.5 19.5l16 70q33 -10 66.5 -16t70.5 -6q87 0 127 42.5t40 118.5q0 79 -40 110t-115 31q-34 0 -64.5 -5t-59.5 -14l30 343h321v-78h-248l-15 -178q11 2 27 3.5t28 1.5q51 0 93 -13t73 -39.5t48 -65.5t17 -90q0 -115 -69 -179t-196 -64z" />
    <glyph glyph-name="six.osf" horiz-adv-x="575" 
d="M292 -13q-50 0 -92 19.5t-72.5 56t-47.5 90.5t-17 123q0 99 23.5 172t68.5 124t111.5 82.5t152.5 48.5l18 -67q-59 -16 -105.5 -34.5t-80 -46.5t-55 -69t-31.5 -102q29 27 64.5 42.5t81.5 15.5q43 0 80 -15.5t64.5 -44.5t43 -70t15.5 -93q0 -56 -17 -99t-47 -72.5
t-70.5 -45t-87.5 -15.5zM294 371q-43 0 -75 -13.5t-61 -38.5q-1 -13 -1 -26v-26q0 -113 34.5 -161t100.5 -48q63 0 95 42t32 117q0 73 -32.5 113.5t-92.5 40.5z" />
    <glyph glyph-name="seven.osf" horiz-adv-x="506" 
d="M119 -52q11 112 36.5 206.5t59.5 170.5t72 134t74 99h-315v78h401v-82q-42 -48 -81.5 -113t-71.5 -144t-53.5 -170t-27.5 -191z" />
    <glyph glyph-name="eight.osf" horiz-adv-x="568" 
d="M286 -13q-54 0 -96 14t-70.5 39.5t-43.5 61t-15 77.5q0 72 36 113t98 69q-32 16 -52.5 36.5t-32.5 42.5t-17 44.5t-5 43.5q0 80 51.5 127t146.5 47q46 0 82 -12.5t61.5 -35t39 -53t13.5 -67.5q0 -54 -27 -94t-95 -74q82 -34 114 -81t32 -112q0 -89 -58.5 -137.5
t-161.5 -48.5zM249 328q-47 -24 -72 -57t-25 -89q0 -69 35.5 -98t99.5 -29q62 0 94 28.5t32 79.5q0 46 -19.5 79t-75.5 57zM179 531q0 -22 4 -39t14.5 -31.5t30 -27t49.5 -25.5l23 -10q29 16 47 31t27.5 31.5t13 34t3.5 38.5q0 101 -108 101q-53 0 -78.5 -27t-25.5 -76z" />
    <glyph glyph-name="gravecomb.case" horiz-adv-x="1" 
d="M-466 840l46 84l191 -133l-31 -53z" />
    <glyph glyph-name="acutecomb.case" horiz-adv-x="1" 
d="M-413 791l191 133l46 -84l-206 -102z" />
    <glyph glyph-name="uni0302.case" horiz-adv-x="1" 
d="M-474 789l124 127h58l123 -127l-33 -45l-119 84l-120 -84z" />
    <glyph glyph-name="tildecomb.case" horiz-adv-x="1" 
d="M-478 786q40 86 103 86q20 0 35 -6t28.5 -13t26.5 -13t28 -6q17 0 28 11.5t24 28.5l45 -33q-40 -86 -103 -86q-20 0 -35 6t-28.5 13t-26.5 13t-28 6q-17 0 -28 -11.5t-24 -28.5z" />
    <glyph glyph-name="uni030A.case" horiz-adv-x="1" 
d="M-272 725q-23 0 -41.5 8.5t-31.5 23t-20 33.5t-7 40t7 40t20 33.5t31.5 23t41.5 8.5t41.5 -8.5t31.5 -23t20 -33.5t7 -40t-7 -40t-20 -33.5t-31.5 -23t-41.5 -8.5zM-272 774q43 0 43 56t-43 56t-43 -56t43 -56z" />
    <glyph glyph-name="uni030C.case" horiz-adv-x="1" 
d="M-389 871l33 45l119 -84l120 84l33 -45l-124 -127h-58z" />
    <glyph glyph-name="diedot.lc" horiz-adv-x="518" 
d="M158 567q-23 0 -41 17.5t-18 42.5t18 42.5t41 17.5t41 -17.5t18 -42.5t-18 -42.5t-41 -17.5z" />
    <glyph glyph-name="diedot.uc" horiz-adv-x="642" 
d="M220 741q-23 0 -41 17.5t-18 42.5t18 42.5t41 17.5t41 -17.5t18 -42.5t-18 -42.5t-41 -17.5z" />
    <glyph glyph-name="nine.osf" horiz-adv-x="575" 
d="M128 0q58 15 104.5 33.5t81.5 46.5t58.5 68.5t34.5 99.5q-29 -25 -63.5 -39.5t-76.5 -14.5q-46 0 -84 16.5t-65 45.5t-42 70t-15 91q0 56 17.5 99t47.5 72.5t70.5 45t87.5 15.5q51 0 93 -18t72 -53.5t46.5 -89t16.5 -123.5q0 -99 -23 -172.5t-69 -125.5t-114.5 -84
t-159.5 -50zM277 265q44 0 77 13.5t62 38.5q1 14 1.5 28t0.5 29q0 57 -9.5 96t-27 63t-43 34.5t-56.5 10.5q-66 0 -96 -42t-30 -117q0 -79 31 -116.5t90 -37.5z" />
    </font>
</defs>
</svg>
